<svg xmlns="http://www.w3.org/2000/svg" id="Storybooks_Kenya_Logo" viewBox="0 0 667 511"><defs id="defs44"><filter id="filter1795" x="0" width="1" y="0" height="1" color-interpolation-filters="sRGB"><feGaussianBlur stdDeviation="28" id="feGaussianBlur1797"/></filter><path transform="rotate(30)" stroke-miterlimit="10" d="M-1 55h2v-93c2-2 2-5 2-8 0-2 0-10-3-19-3 9-3 17-3 19 0 3 0 6 2 8z" id="spearshape"/></defs><style id="style3">.st0{fill:#337fbe}.st1{fill:#3bb54a}</style><g id="g3036" transform="translate(-43 -52)"><g id="Globe"><circle id="circle8" r="222" cy="305" cx="376" class="st0" fill="#337fbe"/><g id="g10"><path id="path12" d="M176 212c3 0 5 4 8 6l9 3 3 2c1 3-3 5-2 7l2 3v2l3 3v2l1 2 8 4 2 1c6 5 0 16-1 21-2 12 3 18 9 26l4 6c6 8 15 15 22 22l2 3 1 4 7 6 18 8c7 4 13 2 19 5 10 3 21 7 29 14 3 3 3 8 3 12l-1 3-1 2-3 2-1 1c-1 1-2 3-1 4l-2 3-1 7 1 5 2 2 1 2c0 3 2 6 4 7l5 2 2 2c3 2 6 3 8 6 3 6-6 18-6 25v8l-5 15c-2 4-5 10-5 15l7 7 1 3-1 2-3 16 1 2 1 2c3 3 8 5 13 6l1-11a26 26 0 0 1 6-14h1c2 0 3-1 4-3l2-5c4-9 12-10 17-17l6-8 8-10c2-3 3-7 6-9l4-3c7-3 19-15 15-23l-2-3 2-4c2-4 18-21 8-26l-5-1c-5-2-8-7-12-9-6-2-13 0-17-6l-2-4-4-5-6-6-2-1c-3-2-9 1-14 0l-3 2c-3 0-6 0-7-2l-2-4c-2-3-8-5-9-8-1-1-3 0-4 1l-1 3-6 8c-3-1-5-3-6-5l-1-3-2-2-5-2c-2-1-5-3-5-6v-5l1-3v-2h-3l-3 3-4 1-3 2c-3 1-8-1-11-2-2 0-4-1-5-3-2-4-2-13 1-16 4-4 3-8 11-8l10 2h10l2 4 2 4 1 2v3c0 4 0 7 2 9l2-2 2-1v-2l-2-13v-3l1-2 5-11c1-3 2-7 4-8 0-2 1-3 3-3l4-1 3-2a68 68 0 0 1 14-9l5-2c1-2 0-4 2-5l2-2-1-1-5-2h-3c-2 0-4-2-5-4l-1-1 1-1 4-7 1-1 4-1 4 2h7l3 2h3l2-4c-1-3 0-8 3-11l1-1v-2c0-2-1-4-3-5s-5 1-8 1l-10-2-1-1-1-1c-1-2-3-13-6-14l-8-1c-1-1-2 0-2 1v1l-2 2-3-2-9-14-1-1h-2c-2 0-5 0-5 2l-2 2c0 6 4 14 4 20v3l-1 1c-3 2-5 12-8 13h-2l-4-3-3-4c-1-2-4-3-6-4-3-2-12-7-13-11-2-4 2-6 3-10s1-7 6-8c7-3 15-7 22-8 3 0 5 0 6-2 1-3 0-5-2-7l-8-10c-1-1-3-10-6-7l-1 1c-2 3-5 4-8 3-2 0-2-2-2-3v-12c0-2 0-4-2-5l-2 1c-2 1-5 2-6 4l-3 2h-9l-1-1-8-14-2-1c-2 0-1 5-3 6-3 1-7 4-10 2l-5-3c-4-3-6-1-8 2l-1 1 1 2 7 8c3 3-4 6 3 7l3 4 2 4 1 1c3 5-13 3-14 2-8-4-19-11-27-11-15 15-32 47-33 52" class="st1" fill="#3bb54a"/><path id="path14" d="M332 323h-5c0 2 2 3 3 4l2 3 5 1 6-1h3l3-1 2-2-1-1-5-1h-2l-4-4h-5l-3 2" class="st1" fill="#3bb54a"/><path id="path16" d="M591 354c0-3 1-8-2-11l-2-3c-6-9-1-20-15-25-7-2-14-2-21-1l-6-1c-6-3-4-12-8-18s-12-5-20-4l-26 3-7 2c-5 2-8 7-10 12-8 19-17 41-8 59 3 5 8 10 13 8l8-7c5-4 12-3 17 1l16 10c4 2 9 3 11 7l1 7c0 9 0 19-4 27-2 4-5 9-3 13l4 4c7 5 7 15 6 24 0-5 15-17 18-21a219 219 0 0 0 39-80" class="st1" fill="#3bb54a"/><path id="path18" d="M596 335c-5-6-5-14-9-19-1-2-3-3-3-5l1-5c1-5 2-11-2-15-4-5-13-5-17-10l-2-2c-2-1-4 0-5 1-4 2-9 2-13 1v-7l-7-2c-3 1-5 3-8 3l-4-1-9 1-6 3c-2 1-4 3-4 5-2 0-5 1-6 3l-6 1c-4 1-10 2-12-1l-3-5-2-9c-1-3-2-7 1-8l4-1c3 0 5-2 6-5h2c1-5-4-11-1-15l6-3c1-1 3-3 5-3h5l4-3c3-1 5 0 7 2l6 5h7l2-1 1-2c0-4 0-8-3-10l-3-3-3-3-2-4c1-2 3-2 4-2h5l1-3h9l7-2c3 1 4 4 5 7l2 7 3 2c2 0 2-3 2-5 1 1 3-1 4-3 2-6 2-13-1-19-3-5-8-9-8-15-4 4-6 8-8 13 0 3-1 6-3 7l-4 2-19 4c-2 0-5 0-7-2s-1-7 1-9l6-8 2-4c2-2 5-2 8-3 3-2 4-6 4-9 1-3 1-7 3-10 1-2 3-4 5-3l5 2c35 43 57 101 47 170" class="st1" fill="#3bb54a"/><path id="path20" d="M493 212l-3 4 1 5-1 4-6 9c-2 1-4 3-4 5v1l2 1 5-1 7-4 3-1c5-1 8-7 6-11l-4-8c0-2 0-4-2-5l-2-2-2 1" class="st1" fill="#3bb54a"/><path id="path22" d="M458 177c-2 0-4 3-6 5s-4 4-7 3l11 14 2 2h10c4-2 5-6 7-9l5-3 2-5-1-8c-2-2-7-2-10-2l-6 1c-3 0-6 1-8 3" class="st1" fill="#3bb54a"/><path id="path24" d="M378 140c3 15 7 28 13 41l2 7c4 11 15 19 26 19l2-18 1-3 5-1c3-1 3-7 6-8h4c4 0 10-4 14-6l2-1 1-2a1388 1388 0 0 0 6-15c0-2-3-3-3-6-1-4 2-9 2-13 0-3 0-10 5-9l4-13c1-2 1-5-1-6h-4c-4-1-6-6-10-5-4 0-5 3-8 4s-6-1-7-3c-1-3 1-8 3-10l-28-6-3 9h-9c-2 3-5 6-9 8-3 1-6 2-8 1-3-2-5-6-9-6l-4-13c-4 0-9-1-13 1l-3 2c-4 2-9 0-13-1l-2 17c0 2 0 5-2 6-3 2-7-1-7-4-3-3-5-8-5-13-6-3-13-2-18 3 6 3 10 9 11 16-4 2-8 0-12-2-4-3-9-5-14-6-4-1-8-1-10 2-1 2 0 4 1 6-3 4-9 5-13 2l-4-2-6 3-11 7c-1 2 6 4 8 6l7-10c5 0 7 5 9 9 1 4 2 9 5 12h5c2-1 2-14 2-15 0 0 8-6 9-5l1 1c4 4 4 11-1 15 1 1 4 2 6 1l10-2c4-1 6-9 10-5 2 4 6 10 3 13l-3 3c-4 2-5 7-4 11 2 3 6 6 10 6h4l3 2c5 4 9 11 7 16 3 3 5 7 9 9 3 3 9 3 11-2-4-2-7-6-8-10l11-2 3-9-7-7h-7c-4-1-6-4-10-6-3-1-8 1-9-1l-1-4 2-10c0-3 0-6 2-8 4-9 20-18 30-16 1 4 1 8-2 10l-4 1-6 5c-2 2-3 7 0 8-2 0-3 3-1 5l6 1 5-4 8-2c2 1 5 3 4 6" class="st1" fill="#3bb54a"/></g></g><g id="Book"><path id="path38" d="M695 483l-5 16a383 383 0 0 0-314 40l-16-11a385 385 0 0 0-298-29l-5-16-7 20 4 17s158-47 276 8c5 2 1 10 12 23 8 8 20 12 34 12 10 0 20-1 29-7 7-5 11-12 14-20 0-2 0-8 3-8 144-55 274-7 274-7l6-18-7-20z" class="st0" fill="#337fbe"/><path d="M709 435c-186-11-273 47-333 84-49-32-112-82-280-84-17-1-34 0-53 2l19 62s155-53 290 30l-2 3c-2 5 1 11 6 14 8 5 18 5 27 4 12-1 23-7 21-17l-3-4c135-82 289-30 289-30l19-62v-2z" id="Middle_Book" fill="#d2d3d4"/><path d="M665 410c-187-10-289 98-289 98S276 400 89 410l-46 27s38-2 56-2c165 3 230 54 277 84 42-25 118-82 281-85l52 2-44-26z" id="Top_Book" fill="#e6e6e6"/></g><g transform="translate(184 145) scale(.5192)" id="g4265"><path d="M0 483h759V0H0z" id="path4267" fill="#3d68c9"/><g transform="matrix(1.05 0 0 1.05 -18 -6)" id="g4269"><path d="M379 383a146 146 0 1 0 0-293 146 146 0 0 0 0 293" id="path4271" fill="#fff"/><path d="M379 383a146 146 0 1 0 0-293 146 146 0 0 0 0 293z" id="path4273" fill="none" stroke="#fcb216" stroke-width="9"/><path d="M381 320c49-1 89-43 88-93-2-53-43-85-95-84-40 1-89 40-87 90 2 49 44 89 94 87" id="path4275" fill="#010101"/><path d="M406 161v3l1 1c1-2 2 0 3 0 1-1 3 0 4-2l1 1c1-2 2-1 3-1l1 1c4 0 9 0 12 2 2 2 3 4 3 7-1 4-5 6-8 7l-3 1 4 6h2c3-3 6-9 12-8 8 2 11 11 13 17 0 5 3 9 4 14l4-7 2 5c0 3 0 8-2 11l6 3c0-8-4-23-7-28-8-21-27-34-33-38-18-11-45-13-47-12-19-1-30 4-38 7a108 108 0 0 0-41 35c-3 5-14 25-13 39 1-5 5-8 7-12l2-9c1 0 1-2 2-1l1 2h1l1-7c-1-4 0-7 3-10 3-5 9-9 15-11 4-1 8 1 11 4v2a1 1 0 0 1 1 0c1-3 4-4 6-5l-6-2c-3-1-3-5-3-8s2-5 4-7c3-2 7-1 10-1l4 1c0 2 2 1 3 2l2 2h1l3-3-1-4-4-1c-1-1-3-2-2-4l2 1c3 0 6-1 8 2l1 5h1c4-2 11-2 15-2 1 0 2 0 1 1l-4 2c-4 2-6 6-8 9l2-1 4-1c8-1 15-1 23 2-3-4-5-8-9-10l3-1a32 32 0 0 1 13 4l1-5c2-4 7-3 11-4 0 0-1 0 0 0-1 3-4 4-7 4l-1 2" id="path4277" fill="#3d68c9"/><path d="M353 166v1" id="path4279" fill="#3f409a"/><path d="M353 166l-2 4-2 1v1c3-2 3-6 7-9l1-1-1-4c-2 0-5-1-6-3v-2c3 2 8 0 10 3l1 5c-6 3-8 11-14 13-2 2-4 3-7 3l1-3c3-4 7-5 11-7z" id="path4281" fill="#fff"/><path d="M353 166l-2 4-2 1v1c3-2 3-6 7-9l1-1-1-4c-2 0-5-1-6-3v-2c3 2 8 0 10 3l1 5c-6 3-8 11-14 13-2 2-4 3-7 3l1-3c3-4 7-5 11-7z" id="path4283" fill="none" stroke="#ed1a3a"/><path d="M406 161v3c0 1 2 2 1 3 1 2 3 2 3 4l1 4-4-2-1-5c-2-1-4-3-3-5 0-2 2-3 4-4z" id="path4285" fill="#fff"/><path d="M406 161v3c0 1 2 2 1 3 1 2 3 2 3 4l1 4-4-2-1-5c-2-1-4-3-3-5 0-2 2-3 4-4z" id="path4287" fill="none" stroke="#ed1a3a"/><path d="M302 205c3-4 0-9 2-13l4-5 1-2 3-3-1 1c1 1 2 0 2-1 3-2 7-2 11-2-3 3-8 3-11 7-1 3 0 6 1 10v2l-2 5c-2 4-6 4-9 7l1-2c3-4 4-8 4-13l2-5c-4 3-1 9-4 14l-4 4v-4" id="path4289" fill="#60bb48"/><path d="M302 205c3-4 0-9 2-13l4-5 1-2 3-3-1 1c1 1 2 0 2-1 3-2 7-2 11-2-3 3-8 3-11 7-1 3 0 6 1 10v2l-2 5c-2 4-6 4-9 7l1-2c3-4 4-8 4-13l2-5c-4 3-1 9-4 14l-4 4v-4z" id="path4291" fill="none" stroke="#010101"/><path d="M331 182l-1 1-4 1c-4 1-7 6-9 9l-2 3c-1-2-3-6-1-9 3-4 8-3 11-7h-5c-3 0-5 0-7 2 4-3 8-5 13-4 2 0 4 2 6 4h-1" id="path4293" fill="#60bb48"/><path d="M331 182l-1 1-4 1c-4 1-7 6-9 9l-2 3c-1-2-3-6-1-9 3-4 8-3 11-7h-5c-3 0-5 0-7 2 4-3 8-5 13-4 2 0 4 2 6 4h-1z" id="path4295" fill="none" stroke="#010101"/><path d="M387 143h-1z" id="path4297" fill="#fff"/><path d="M413 155c0 2-1 3-3 4l-6 1-1 2c0-2 1-5 3-6l7-1" id="path4299" fill="#fff"/><path d="M413 155c0 2-1 3-3 4l-6 1-1 2c0-2 1-5 3-6l7-1z" id="path4301" fill="none" stroke="#ed1a3a"/><path d="M340 160c0 2-2 1-3 1h-1l-1 4-1 1 2 3c1 1-1 3 1 4l1 2 2 1v1c-4 0-8-1-9-4-2-4 0-8 2-10s4-3 7-3" id="path4303" fill="#ed1a3a"/><path d="M340 160c0 2-2 1-3 1h-1l-1 4-1 1 2 3c1 1-1 3 1 4l1 2 2 1v1c-4 0-8-1-9-4-2-4 0-8 2-10s4-3 7-3z" id="path4305" fill="none" stroke="#ed1a3a"/><path d="M344 161c-1 0 0 3-2 4l3 2c1 1 3-2 5 0h2c-4 2-10 3-12 8l-3-2-1-1 1-2-1-1-2-3 2-1v-3h4v-2l4 1" id="path4307" fill="#fff"/><path d="M344 161c-1 0 0 3-2 4l3 2c1 1 3-2 5 0h2c-4 2-10 3-12 8l-3-2-1-1 1-2-1-1-2-3 2-1v-3h4v-2l4 1z" id="path4309" fill="none" stroke="#ed1a3a"/><path d="M348 162c1 1 3 0 4 2l1 1v1c-2 0-5-1-7 1l-2-1c0-1-2-1-1-2 1 0-1-4 2-3l3 1" id="path4311" fill="#fcb216"/><path d="M348 162c1 1 3 0 4 2l1 1v1c-2 0-5-1-7 1l-2-1c0-1-2-1-1-2 1 0-1-4 2-3l3 1z" id="path4313" fill="none" stroke="#ed1a3a"/><path d="M402 164l3 4c0 3 1 6 4 7l2 1c3 3 7 5 11 5 1 2 3 3 3 5l1 1c-1 1-1-1-2-1-6-4-12-7-17-13-4-3-7-8-12-9v1c2 0 4 2 6 4 6 6 12 12 19 15l3 2c-3-3-8-2-12-4-5-2-10-6-14-10s-5-9-10-11c2-2 4 0 6 0l9 3" id="path4315" fill="#60bb48"/><path d="M402 164l3 4c0 3 1 6 4 7l2 1c3 3 7 5 11 5 1 2 3 3 3 5l1 1c-1 1-1-1-2-1-6-4-12-7-17-13-4-3-7-8-12-9v1c2 0 4 2 6 4 6 6 12 12 19 15l3 2c-3-3-8-2-12-4-5-2-10-6-14-10s-5-9-10-11c2-2 4 0 6 0l9 3z" id="path4317" fill="none" stroke="#010101"/><path d="M419 164c1 1 2 2 1 4-3 0-4 3-6 2l-4-1-3-2v-2l1-1 2 1c1-1 3 0 4-2h2l3 1" id="path4319" fill="#fcb216"/><path d="M419 164c1 1 2 2 1 4-3 0-4 3-6 2l-4-1-3-2v-2l1-1 2 1c1-1 3 0 4-2h2l3 1z" id="path4321" fill="none" stroke="#ed1a3a"/><path d="M429 165l1 3c-1 1-3 1-2 3v2l-1 2c-2 0-3 2-4 3h-2c-1-3-3-6-6-7l4-3a3 3 0 0 0 1 0v-2-1l1-1 8 1" id="path4323" fill="#fff"/><path d="M429 165l1 3c-1 1-3 1-2 3v2l-1 2c-2 0-3 2-4 3h-2c-1-3-3-6-6-7l4-3a3 3 0 0 0 1 0v-2-1l1-1 8 1z" id="path4325" fill="none" stroke="#ed1a3a"/><path d="M434 171c0 3-1 6-4 7-2 2-5 3-8 3l-1-2 3-2c1-2 4-1 4-4 1-1-2-3 0-4l2-1-1-3c2 1 5 3 5 6" id="path4327" fill="#ed1a3a"/><path d="M415 170l4 5 3 6c-4-1-8-3-10-6l-3-6c2-1 4 2 6 1" id="path4329" fill="#fff"/><path d="M415 170l4 5 3 6c-4-1-8-3-10-6l-3-6c2-1 4 2 6 1z" id="path4331" fill="none" stroke="#ed1a3a"/><path d="M332 183c0 3-2 6-4 8l-4 1-7 2c3-6 8-11 15-11" id="path4333" fill="#60bb48"/><path d="M447 183c5 7 6 15 9 23l1 5-5-1c-2-4-1-9-3-13-2-5-4-10-9-12 5 4 8 10 10 16l1 6v2c-2-1-5-3-5-6-1-2-1-5-3-7l-5-7-5-2c1-3 4-4 7-4 2 0 5 0 6 2l2 2-3-4c-3-1-7-1-10 1-1 0-2 1-2 3l-2 1-2-1c3-3 7-8 12-7 3 0 5 1 6 3" id="path4335" fill="#60bb48"/><path d="M447 183c5 7 6 15 9 23l1 5-5-1c-2-4-1-9-3-13-2-5-4-10-9-12 5 4 8 10 10 16l1 6v2c-2-1-5-3-5-6-1-2-1-5-3-7l-5-7-5-2c1-3 4-4 7-4 2 0 5 0 6 2l2 2-3-4c-3-1-7-1-10 1-1 0-2 1-2 3l-2 1-2-1c3-3 7-8 12-7 3 0 5 1 6 3z" id="path4337" fill="none" stroke="#010101"/><path d="M388 189l-1 2v-3l1 1" id="path4339" fill="#fff"/><path d="M439 192c-3-1-5-1-7-3l-1-1 1-1c3 0 5 3 7 5" id="path4341" fill="#fff"/><path d="M326 194l-9 5-2 2v-4 1c2-4 7-5 11-6v2" id="path4343" fill="#3f409a"/><path d="M437 215a16 16 0 0 1 1 3h-1l-1-3 1-1" id="path4345" fill="#fcb216"/><path d="M320 208c-5 3-12 1-16 5l-2 1 1-2 6-4c3-1 4-3 5-5l11-8c1 5-1 10-5 13" id="path4347" fill="#ed1a3a"/><path d="M357 203h-1l3-4-2 4" id="path4349" fill="#fff"/><path d="M357 203h-1l3-4-2 4z" id="path4351" fill="none" stroke="#ed1a3a"/><path d="M306 215l4-2c2 0 5-1 6-3l-2 1c-5 0-8 1-12 4h-1c2-4 0-9-1-12l-3 5-1 2v5l1 3c-1 1 1 2 1 3l3-3 2-1 1-1h1l1-1" id="path4353" fill="#fff"/><path d="M306 215l4-2c2 0 5-1 6-3l-2 1c-5 0-8 1-12 4h-1c2-4 0-9-1-12l-3 5-1 2v5l1 3c-1 1 1 2 1 3l3-3 2-1 1-1h1l1-1z" id="path4355" fill="none" stroke="#ed1a3a"/><path d="M354 210l-4-1 2 3 1-1 1-1z" id="path4357" fill="#fcb216"/><path d="M349 212l3 4v-3l-2-3-1 2" id="path4359" fill="#fcb216"/><path d="M349 211l-3-1-2-3-1 1v1h-1l-2-1a6 6 0 0 1 0 3v-1c-1-1 2-2 1-4h-1l1-1 1-2-2 1c-2 1 1-1 0-2h-1l-3 3v-2h-1l1-2h-3l-1-1-2 3-3-1-2 3h-1a2 2 0 0 0-1 0l2-2c0-2 2-5 1-7l1-2 1-2 3-4 1-3 3 1 3-2 8-3c4 0 8-1 11-3l4-2 5-5 3-1c8-2 18-1 26 2 7 5 13 11 21 12 3 0 6 2 8 3l2 1h3l2 1 1 1c5 6 1 13 3 20l1 3v1l-1 1-3-2c0-2-2-2-4-2-1-2-1-5-4-5-1-1-2-3-4-3l-2 1-1-2h-1l-1 1-3 3c-2 2-3-2-5-2l-2 3-2 4c-3 1-7 3-10 1l-5 1h-4c-2 0-3-4-6-3-4 1-3-5-7-4l-3-1c-1 0-1-2-3-2l-4 4v2c-2-2-1-4-3-5l1-2 1-3h-2l-3 4-1 3c-1 1 0 2 1 3h-1a4 4 0 0 0-1-1c-1 0-2-2-4 0l-1-4-1 1v1l3 4-1 1" id="path4361" fill="#fff"/><path d="M332 218h6l1-1v-4a4 4 0 0 0 1-2l-1-1 2-3-2-1 2-2-3 2 1-3-2 2-2 1v-2-3h-2l-1-1-3 4-1-2c-2 0-2 3-3 4h-2c-2 4-3 8-3 13h1s0-3 4-4h3l3 2 1 1" id="path4363" fill="#fcb216"/><path d="M343 219h2-2z" id="path4365" fill="#fcb216"/><path d="M334 235l-15 1 1-17h18l2 2 2-2h3v6l-5 5-4 5z" id="path4367" fill="#60bb48"/><path d="M334 235l-15 1 1-17h18l2 2 2-2h3v6l-5 5-4 5z" id="path4369" fill="none" stroke="#010101"/><path d="M333 264c1-1 3-3 3-5h-5-1 6l1-1v-1h8c1-1 4 1 6 1l-1-3h-6s-1 0 0 0h6v-1l-3-18h-1c-2-1-2 2-3 2l-2-4-5 6-1-1v-2l1-1h-2-15a17 17 0 0 0 1 4c2 2 2 4 2 7v1l2 4c2 5 5 9 9 13z" id="path4371" fill="#fff"/><path d="M333 264c1-1 3-3 3-5h-5-1 6l1-1v-1h8c1-1 4 1 6 1l-1-3h-6s-1 0 0 0h6v-1l-3-18h-1c-2-1-2 2-3 2l-2-4-5 6-1-1v-2l1-1h-2-15a17 17 0 0 0 1 4c2 2 2 4 2 7v1l2 4c2 5 5 9 9 13z" id="path4373" fill="none" stroke="#b33636"/><path d="M353 265v-2c-3-3-2-7-3-10l-2-13c3 0 6-2 9 0 4 1 8-2 12 0l5-1v1l1-1h-20a64 64 0 0 1-3 0h-4c-1 1 0-1-1-2v-1h31v6l-2 8-9 1h-16 22l3-1v4h-7c-2 2-4-1-7 0h-2l-3 1h-5 2l7-1 6 1c3 0 5-2 8-1h2c1 3-1 7-4 9h1l-10 1-8 1h-1l3-1h15l-2 4h-16 15l-4 4v1c0 2 3 3 3 6h2-3c-4 0-9-1-13 1l2-1h9c3-1 4 2 7 1 2-1 4-2 6-1h7l-3-1c-3 2-6-1-9 1l-1-1-1-2c-1-2 1-2 2-4h9-9l4-4h5l1-1-2 1h-4l3-4h4l-2-1h-1v-6l3 4 1 17h1l1 4c3 2 5 1 8 0v-1c-1-2-4 0-5-3v-3l-1-3v-4-4h5l1-1h2l3 4c-2 3 0 6 0 8l1 2 5-2h1l7-1c-5 4-10 6-15 8-4 1-8 4-14 3-7 1-14 1-22-1-4-1-9-2-13-5l-4-2h4c2-1 5 0 5-2l-2-6-1-3v-1" id="path4375" fill="#fff"/><path d="M353 265v-2c-3-3-2-7-3-10l-2-13c3 0 6-2 9 0 4 1 8-2 12 0l5-1v1l1-1h-20a64 64 0 0 1-3 0h-4c-1 1 0-1-1-2v-1h31v6l-2 8-9 1h-16 22l3-1v4h-7c-2 2-4-1-7 0h-2l-3 1h-5 2l7-1 6 1c3 0 5-2 8-1h2c1 3-1 7-4 9h1l-10 1-8 1h-1l3-1h15l-2 4h-16 15l-4 4v1c0 2 3 3 3 6h2-3c-4 0-9-1-13 1l2-1h9c3-1 4 2 7 1 2-1 4-2 6-1h7l-3-1c-3 2-6-1-9 1l-1-1-1-2c-1-2 1-2 2-4h9-9l4-4h5l1-1-2 1h-4l3-4h4l-2-1h-1v-6l3 4 1 17h1l1 4c3 2 5 1 8 0v-1c-1-2-4 0-5-3v-3l-1-3v-4-4h5l1-1h2l3 4c-2 3 0 6 0 8l1 2 5-2h1l7-1c-5 4-10 6-15 8-4 1-8 4-14 3-7 1-14 1-22-1-4-1-9-2-13-5l-4-2h4c2-1 5 0 5-2l-2-6-1-3v-1z" id="path4377" fill="none" stroke="#b33636"/><path d="M353 265h-1c-2-1-1-3-1-5l-1-2-1-1c-2-1-4 0-5 1-3 0-7-2-8 1l-3 5v1a74 74 0 0 0 15 12h5l3-2-3-9z" id="path4379" fill="#b33636"/><path d="M353 265h-1c-2-1-1-3-1-5l-1-2-1-1c-2-1-4 0-5 1-3 0-7-2-8 1l-3 5v1a74 74 0 0 0 15 12h5l3-2-3-9z" id="path4381" fill="none" stroke="#ed1a3a"/><path d="M371 225v2l-5-2v2h3c0 3 2 6 4 7l1 2h4v-5l1-4-6-2h-2" id="path4383" fill="#60bb48"/><path d="M371 224a9 9 0 0 1 0-1h13v3l-5 1-7-3z" id="path4385" fill="#3f409a"/><path d="M409 314h-4c-4 0-8-2-11-3h-1l-2 3-2 1c-4-2-2 4-5 4h3s0-1 0 0c8 0 17-3 22-5z" id="path4387" fill="#3d68c9"/><path d="M392 303v-4c1-2 2-5 0-7h-3l-3 1c-1-1 0-3-2-4h-4c-3 1-7 0-9 3l-1 2c-1 1-1-1-2-2-1-3-2-5-5-7h-4c-2 0-3-2-4 0l-1-1c-1 1-2 1-2 3h-2c0 1 1 3-1 3l-1 1c1-3-1-6-4-7l-4-4 2-2-4-1c-1 1-3 3-3 5l-1-3c0-5-2-11-5-15-2-2-4-4-7-4-1-2-1-4-3-5l-9-5h-2c-2 2-1 6-1 9h-3c-2 1-2 3-2 5 1 4 3 9 2 13h2l3-4c1 4 5 7 8 9l7 1v3l3 15c3 3 6 7 10 7 1 0 1 2 2 1 0 0 1 0 0 0l-1-2v-2c1 4 5 5 8 6 7 1 12-4 18-2l1 4h2c1 2-3 5 0 6l-10-2c-6-2-11-3-16-6l-15-8a89 89 0 0 1-38-71c2 1 4 13 11 15l8 1 12 3 2 2 1-1-1-4 1 2 2 4c5 9 13 18 22 23 3 3 6 3 9 5 4 2 9 3 14 3 7 2 14 0 21 1l7-2c-3 2-3 6-4 9 0 4 2 9 6 10l3 2h5l3-2 2-4 3-2c-2-2 1-1 1-3v-2l1 2v3l-1 1h-1v2c-3 4-7 8-13 7l-7-2-2-1-1-1" id="path4389" fill="#3d68c9"/><path d="M392 304a3 3 0 0 1 0 1l1 6h4l10 2h2l1 1 3-2 2-1a105 105 0 0 0 3-1l2-2 7-11 1-1 3-6c1-4-1-7-1-11l-2 8-1 2v-1c1-6 3-14 9-17l-2-2-1-1 4 2v1c2 2 5 2 6 5l1 1c0 1 0 3 2 4v1c2-3 2-6 2-8-1-4-4-7-7-10h-8c-5 3-8 10-9 16l-1 3-1 8 2 4c0 3 0 6-3 7l-3 2c-2 1 0-2-1-3l-2-1-4 5c-4 4-10 3-15 1l-3-2h-1" id="path4391" fill="#60bb48"/><path d="M392 304a3 3 0 0 1 0 1l1 6h4l10 2h2l1 1 3-2 2-1a105 105 0 0 0 3-1l2-2 7-11 1-1 3-6c1-4-1-7-1-11l-2 8-1 2v-1c1-6 3-14 9-17l-2-2-1-1 4 2v1c2 2 5 2 6 5l1 1c0 1 0 3 2 4v1c2-3 2-6 2-8-1-4-4-7-7-10h-8c-5 3-8 10-9 16l-1 3-1 8 2 4c0 3 0 6-3 7l-3 2c-2 1 0-2-1-3l-2-1-4 5c-4 4-10 3-15 1l-3-2h-1z" id="path4393" fill="none" stroke="#010101"/><path d="M420 308c2-3 5-9 8-11h9l2-1a120 120 0 0 1-20 13l1-1" id="path4395" fill="#3d68c9"/><path d="M359 207l1 3 6 2c-1 1-2-1-2-1-2 0-4 0-5-3h-1c1-1 0-2-1-3h-1l-2 1v1c1-1 1-2 2-1h1l-1 1-1-1 1 2v2l-2-5 1-2 1 1v-1l3 4" id="path4397" fill="#fff"/><path d="M359 207l1 3 6 2c-1 1-2-1-2-1-2 0-4 0-5-3h-1c1-1 0-2-1-3h-1l-2 1v1c1-1 1-2 2-1h1l-1 1-1-1 1 2v2l-2-5 1-2 1 1v-1l3 4z" id="path4399" fill="none" stroke="#ed1a3a"/><path d="M370 206l3 1c1 2 2 3 4 3 3 0 4 3 7 3h16c1-2 4-1 5-4l2-3 1-1 2 2 3-1 3-3c1 0 2 3 3 2l2-1 3 3c3 0 2 4 4 4l-1 2-1 1-1-2-1 2c-1-3-1-6-3-8l-2 2-1 4c-1-2 0-5-3-5l-1 2-1 4c-1-1 0-4-2-5l-1 2-2 5c-2 2-2-3-4 0l-1-1-1 1-1-1h-1l-1-1-1 1h-1s0 2-2 2l-1-1h-2l-1-1-1 1h-1l-1 2c-4 1-8 3-11 1-2-1-4 1-7 1l-2-1-1-1-7 1 1-6v-1l4 1h2l-2-2-4-1 1-3 3-2c2 0 3 3 5 2" id="path4401" fill="#fcb216"/><path d="M348 206v-1 1" id="path4403" fill="#fff"/><path d="M348 206v-1 1z" id="path4405" fill="none" stroke="#ed1a3a"/><path d="M318 225l1 14-12-5-2-1c5 0 9-3 12-7 0-1 2-4 0-6l-3-4v1l1-2 2-5 5-4c-3 6-3 13-4 19" id="path4407" fill="#3f409a"/><path d="M357 208v-1 1" id="path4409" fill="#fff"/><path d="M352 208l-2 1-1-1h3" id="path4411" fill="#fff"/><path d="M352 208l-2 1-1-1h3z" id="path4413" fill="none" stroke="#ed1a3a"/><path d="M457 223h1l7-3-2-1c-2-1-3 0-5 1l-1 2c-1 0 0 0 0 0l1-2 3-1c5-5 3-11 1-15l-5 8 1 5-1-4c-1-2-3-2-5-3v1l-1-1-3-2v2c-1 4 2 6 5 8l1 1-3 2h3l1 1z" id="path4415" fill="#fff"/><path d="M457 223h1l7-3-2-1c-2-1-3 0-5 1l-1 2c-1 0 0 0 0 0l1-2 3-1c5-5 3-11 1-15l-5 8 1 5-1-4c-1-2-3-2-5-3v1l-1-1-3-2v2c-1 4 2 6 5 8l1 1-3 2h3l1 1z" id="path4417" fill="none" stroke="#ed1a3a"/><path d="M457 223l-1 3c-2 0-3 2-5 0l-1-1h-2c1-1 0-4 2-4l4 1z" id="path4419" fill="#fcb216"/><path d="M457 223l-1 3c-2 0-3 2-5 0l-1-1h-2c1-1 0-4 2-4l4 1z" id="path4421" fill="none" stroke="#ed1a3a"/><path d="M345 212h1c1 2 1 4 3 5l2 2h3l-2-1-1-2-2-2c0-2-2-3-4-4l-1-2-1 2-2-1-1 4 3-1 1-1z" id="path4423" fill="#ed1a3a"/><path d="M344 212l-2 1h-3l1 2-1 4 1 1c1 1 1 0 1-1l1-1-2-1 1-1 2 2 2-1v-2 1c-1 1 0 3 1 4l-1 6-4 4-3 3-2 5h-1 1v1l6-8 3-3v-1h1l4 3h2c-1-3 0-6 2-8l1-2v-1h-1-3c-3-1-5-4-6-7h-1" id="path4425" fill="#b33636"/><path d="M354 219l-1-1 1-2v1l1 1v-1l-1-4s-1 0 0 0c-1 1 1 3-1 3v2l-1-2 1-2v-3l2-1 1 1s0-2 1-1l2 1c2 1 1 3 1 5s-2 4-4 5h-1l4-5v-3h-1c1 3-2 5-3 6z" id="path4427" fill="#fff"/><path d="M354 219l-1-1 1-2v1l1 1v-1l-1-4s-1 0 0 0c-1 1 1 3-1 3v2l-1-2 1-2v-3l2-1 1 1s0-2 1-1l2 1c2 1 1 3 1 5s-2 4-4 5h-1l4-5v-3h-1c1 3-2 5-3 6z" id="path4429" fill="none" stroke="#ed1a3a"/><path d="M362 222v-1l6 1 2 1 1 3c-2 1-4-2-6-2l-2-1z" id="path4431" fill="#ed1a3a"/><path d="M362 222l-2-1c0 3-4 3-5 5v4h1l4-1-1-2c1 0 1 2 3 1l4 1 3 4c1 1 2 3 4 3a3 3 0 0 0 0-2c-3-1-4-4-5-6l-2-1-3-4z" id="path4433" fill="#b33636"/><path d="M355 231l-2 3h-1v-4l-1 1h-2l-3-2-3 3v1s1 0 0 0l2 3h26l-4-5c-1-3-4-1-5-2 0 2 2 2 3 3h1l1 1v2l-5-1c-2-1-2-3-3-5a6 6 0 0 1-2 1h-1z" id="path4435" fill="#60bb48"/><path d="M447 209c0 2 1 5 3 7l4 3c0 2-2 2-4 2-3 1-8 2-9 6 0 3 0 7 3 9l4 2c-4 2-8 2-11 5 2-6 2-13 2-19v-1l-1-8c3 2 5 3 8 3v-2c-2-3 0-7 0-10 1 1 2 2 1 3" id="path4437" fill="#3f409a"/><path d="M359 210l-1-1 1 1" id="path4439" fill="#fff"/><path d="M427 223v-1l1-2-1 1-2-1v0h-4l-5 3h10z" id="path4441" fill="#b33636"/><path d="M426 224h-10c-4-1-8-2-12-1l-2-1-7 1h-1l1-1c3 0 5-3 8-3l-2-1h-12l2 2c0 1 2 3 1 4l3 1h19l14 1c2-4 7-2 10-3v-4c-2 0-2-2-3-4a9 9 0 0 0-1 2c-2 0-2-1-2-2l-1 1c-2-1-2-2-2-4h-1v1c0 1 0 2-2 2a4 4 0 0 1-1-2l-1 2-1-1c-1-3-1-5-3-7-1 2-2 4-1 6l-1 1-1-3c-1-1 0-3-2-3l-1 3-1 3-1-2v1l1 2v1l-1 1h-2v-1c-1-1 1-1 1-2v-3-1-1l-1 3-2 4c-1 1-2-1-3-1l1 1-1 1-1-1h1v-1h-2-1l-1-1-1 1 1 1-1 1 2 1h6c2 3 5 0 7 0 3 2 5-1 7 0l-1 1h3l1 1 1-1 1-1v-1l-1-1 2-2h1v2l1 1-1 1 1 1h1v-2l1-1v2c2 0 0 2 1 2h-1c0 1 0 0 0 0l1 2 1-2h-1l1-3v1l1-1v4h1v1h-1a1 1 0 0 1 0 1h-1v-1h-1v1h-2c1 0 1 0 0 0l-1-1v-1l1-1-2 1h1-1v1l-1 1h-1l-1 1" id="path4443" fill="#60bb48"/><path d="M416 211l1 1v1l-1-1v1l1 1 1 1h-2v1h1l-2 1-1-1 2-1h-2v-2-2l1-2h1v2" id="path4445" fill="#010101"/><path d="M421 209v1l-1 1 2 1h-1l1 1h1l-2 1 1 1 1 1v1c-1 0-2-2-3-1l-1 1-1-2h1c0-1 2-1 1-2l-1-2 1-1v-1h1" id="path4447" fill="#010101"/><path d="M296 218c-2 0-2 1-3 2l-1 1c0 2-1 5 1 7 1 2 4 2 6 3l6 2 14 7 1 2c2 3 1 7 1 10-3-3-8-3-12-4-5-1-12 0-15-6l-5-10c-3-6 3-12 7-18v4" id="path4449" fill="#ed1a3a"/><path d="M344 213l-1 1h-1 1l1-1" id="path4451" fill="#010101"/><path d="M433 214c0 1 2 1 0 2l-1-2-1 1-2-4c2 0 2 3 4 3" id="path4453" fill="#fcb216"/><path d="M330 216l1 2-10 1c0-2 2-3 4-4l5 1" id="path4455" fill="#fcb216"/><path d="M330 216l1 2-10 1c0-2 2-3 4-4l5 1z" id="path4457" fill="none" stroke="#ed1a3a"/><path d="M400 215l-1 1v1h-1v-2h-1 2v-1l1 1" id="path4459" fill="#60bb48"/><path d="M297 218c0 1 2 3 0 4-1 2-1 6 1 8-2-1-5-2-5-5-1-3 1-6 4-7" id="path4461" fill="#fff"/><path d="M297 218c0 1 2 3 0 4-1 2-1 6 1 8-2-1-5-2-5-5-1-3 1-6 4-7z" id="path4463" fill="none" stroke="#ed1a3a"/><path d="M390 216v-1 1z" id="path4465" fill="#60bb48"/><path d="M392 215v1l1 1v-1l1-1 2 1-1 1h1-5v-1l1-1" id="path4467" fill="#60bb48"/><path d="M390 216v1h-2c1-1 1-2 2-1" id="path4469" fill="#60bb48"/><path d="M392 215v1z" id="path4471" fill="#010101"/><path d="M404 216l-1 1h-1v-1h1-1l1-1 1 1" id="path4473" fill="#010101"/><path d="M425 215v1h1l-1 1 1 1h-1v-1h-1l1-2" id="path4475" fill="#010101"/><path d="M315 217l1 1c3 3 0 3 0 3l-2-4h1" id="path4477" fill="#ed1a3a"/><path d="M301 220l-1 1c0 3-3 6 0 8l3 1h5l7-6 2-5c2 2 0 6 0 6-1 3-5 6-8 8-4 1-8-1-11-3l-2-4c0-3 3-6 5-8v2" id="path4479" fill="#ed1a3a"/><path d="M341 218l-1 1v-1h1" id="path4481" fill="#010101"/><path d="M397 216h-1 1z" id="path4483" fill="#60bb48"/><path d="M369 220c3 1 6-3 9-1s7-1 10-1l-4 2v3h-13l-2-2h-7l-2-1v-2c3 1 7-2 9 2" id="path4485" fill="#60bb48"/><path d="M359 219c0 1 1 3-1 4s-4 2-4 4v5l-2 1 1-2c0-3-1-5 1-7l1-2 3-2 1-1" id="path4487" fill="#fff"/><path d="M359 219c0 1 1 3-1 4s-4 2-4 4v5l-2 1 1-2c0-3-1-5 1-7l1-2 3-2 1-1z" id="path4489" fill="none" stroke="#ed1a3a"/><path d="M407 219l3 1-5 2h-8l1-1 7-2h2" id="path4491" fill="#b33636"/><path d="M420 219h2l-4 3h-1c-3 2-6 0-9 0l-4 1 5-2 3-1 3-1h5" id="path4493" fill="#b33636"/><path d="M424 232l-2 4c-2 0-3 0-4 2l2 1 4 1 13 1-2 7-2 4h-1l-3-1-16-7-18-9-5-3h8l4-1 4 1h7a257 257 0 0 1 8 0h3" id="path4495" fill="#3f409a"/><path d="M425 232c2-1 2-3 3-5l-10-1c-9-2-15 0-23-1-1 1-2 0-3-1l1 5h-2c-1-2-2-1-4-1 2 1 2 2 2 4h3l3-1h29l1 1" id="path4497" fill="#fff"/><path d="M386 227l-1-1-1-1v-3l2 1 1 2v3-1z" id="path4499" fill="#fff"/><path d="M386 227l-1-1-1-1v-3l2 1 1 2v3-1z" id="path4501" fill="none" stroke="#ed1a3a"/><path d="M385 227l-1-1-5 1c-2 3-1 7-1 10v4l5 1h2l-1-1v-6l1-1c0 2-2 5 0 7l4-1v-10l-2-2z" id="path4503" fill="#ed1a3a"/><path d="M385 227l-1-1-5 1c-2 3-1 7-1 10v4l5 1h2l-1-1v-6l1-1c0 2-2 5 0 7l4-1v-10l-2-2z" id="path4505" fill="none" stroke="#ed1a3a"/><path d="M398 249l-4-4-5-5v-7c3 2 6 2 9 5l16 7c6 4 12 6 18 7l1 1-4 6-1 2-2 2h-1l-2-1c-2-2-5-3-8-3-2-2-5-1-6-4l-4-2-4-3h-1l-2-1" id="path4507" fill="#60bb48"/><path d="M398 249l-4-4-5-5v-7c3 2 6 2 9 5l16 7c6 4 12 6 18 7l1 1-4 6-1 2-2 2h-1l-2-1c-2-2-5-3-8-3-2-2-5-1-6-4l-4-2-4-3h-1l-2-1z" id="path4509" fill="none" stroke="#010101"/><path d="M405 264h2l3 1c1 3 5 3 6 5v3l8-7h-1-1v1-1l-4 1c-2-1-4 1-5 1l-1-1 5-1h5s1 0 0 0h2l2-2h-1l-3-1c-1-2-3-3-5-3l-3-1c-3 1-7-1-11 1 3-2 7-1 10-2l-3-1c-2-1-2-3-4-3l-3-2-3-2h-2c2 5 3 10 6 14h1" id="path4511" fill="#fff"/><path d="M405 264h2l3 1c1 3 5 3 6 5v3l8-7h-1-1v1-1l-4 1c-2-1-4 1-5 1l-1-1 5-1h5s1 0 0 0h2l2-2h-1l-3-1c-1-2-3-3-5-3l-3-1c-3 1-7-1-11 1 3-2 7-1 10-2l-3-1c-2-1-2-3-4-3l-3-2-3-2h-2c2 5 3 10 6 14h1" id="path4513" fill="none" stroke="#b33636"/><path d="M426 222h-1 1" id="path4515" fill="#010101"/><path d="M444 224l1-1 4-2c0 1-2 3-1 4l3 1c2 2 3 0 5 0l1-3c2 2 3 5 2 7l-2 2-1 3-3-2-2 2-2-1-1 1-4-2v-2l-2-2 2-4z" id="path4517" fill="#fff"/><path d="M444 224l1-1 4-2c0 1-2 3-1 4l3 1c2 2 3 0 5 0l1-3c2 2 3 5 2 7l-2 2-1 3-3-2-2 2-2-1-1 1-4-2v-2l-2-2 2-4z" id="path4519" fill="none" stroke="#ed1a3a"/><path d="M438 235l-1 5c-4 1-8 0-12-1l-6-1 2-2h2c1-1 1-4 3-5s2-2 2-4h1c1-4 6-2 9-3v11" id="path4521" fill="#b33636"/><path d="M362 229v2l3 2 1-1v2c-1 1-3-1-4-1l-2-4h2" id="path4523" fill="#b33636"/><path d="M468 227c-1 4-4 7-8 7l-2 1 1-1 9-7s0 1 0 0" id="path4525" fill="#3f409a"/><path d="M467 243c0 3-1 4-3 4a153 153 0 0 0-19 6c-3 1-6 3-8 7l-1-2v-14c4-3 8-3 11-6h2c5 1 8-3 13-4 3-1 5-2 7-6l-2 15" id="path4527" fill="#ed1a3a"/><path d="M342 232l2 4-1 1-2-4 1-1" id="path4529" fill="#b33636"/><path d="M346 239v1h-25 17c3-2 6 0 8-1" id="path4531" fill="#b33636"/><path d="M343 243h3-2l3 6-1 1-1 1-3-2v-6h-1c-3-1-5 2-8 0h-5l-5 1 2-1c3-1 5 1 8-1 1 0 2 2 4 1h5l1-1h1z" id="path4533" fill="#b33636"/><path d="M390 242l5 4 1 1-3-1-1 1-4-4v-2c1-1 1 1 2 1" id="path4535" fill="#fff"/><path d="M390 242l5 4 1 1-3-1-1 1-4-4v-2c1-1 1 1 2 1z" id="path4537" fill="none" stroke="#ed1a3a"/><path d="M388 241l1 7c1 2 3 3 2 5 0 0-1 2-2 1l-1-3c-3-3-3-6-3-10h3" id="path4539" fill="#fff"/><path d="M388 241l1 7c1 2 3 3 2 5 0 0-1 2-2 1l-1-3c-3-3-3-6-3-10h3z" id="path4541" fill="none" stroke="#ed1a3a"/><path d="M347 249l-1 2-3-1c-2-2-2-5-1-7l1-1 4 7" id="path4543" fill="#3f409a"/><path d="M347 249l-1 2-3-1c-2-2-2-5-1-7l1-1 4 7z" id="path4545" fill="none" stroke="#ed1a3a"/><path d="M355 243h7l7-1h9-9c-4 3-8 0-13 1h-7 4z" id="path4547" fill="#010101"/><path d="M355 243h7l7-1h9-9c-4 3-8 0-13 1h-7 4z" id="path4549" fill="none" stroke="#b33636"/><path d="M393 247c3 3 4 7 6 10l-2 2-6-7c1-2-3-3-2-6l-1-3c2 1 2 4 5 4" id="path4551" fill="#fff"/><path d="M393 247c3 3 4 7 6 10l-2 2-6-7c1-2-3-3-2-6l-1-3c2 1 2 4 5 4z" id="path4553" fill="none" stroke="#b33636"/><path d="M340 247h0-8c-3 2-6-1-9 1v-1c2-1 5 2 8 0h6z" id="path4555" fill="#b33636"/><path d="M361 246c2 2 5 1 7 0h8v1l-7-1c-3 1-6 2-8 1h-8-2-1c3-2 5 1 8 0z" id="path4557" fill="#010101"/><path d="M361 246c2 2 5 1 7 0h8v1l-7-1c-3 1-6 2-8 1h-8-2-1c3-2 5 1 8 0z" id="path4559" fill="none" stroke="#b33636"/><path d="M348 247h-2 2" id="path4561" fill="#b33636"/><path d="M313 257l1 3c-3 1-5 3-6 6 1-2 3-4 6-5 2-2 6-1 9 0-3 0-5 1-6 3l-1 2c-5 1-6 7-10 10l-1 1c0-5-3-10-2-15l1-3h4v-9l5 7" id="path4563" fill="#60bb48"/><path d="M313 257l1 3c-3 1-5 3-6 6 1-2 3-4 6-5 2-2 6-1 9 0-3 0-5 1-6 3l-1 2c-5 1-6 7-10 10l-1 1c0-5-3-10-2-15l1-3h4v-9l5 7z" id="path4565" fill="none" stroke="#010101"/><path d="M321 259h-6l-1-1-5-7c5 1 11 3 12 8" id="path4567" fill="#ed1a3a"/><path d="M393 249l-3-1 3 1" id="path4569" fill="#b33636"/><path d="M457 273l-6 9-5 7v-1l1-3c2-3 1-6 2-9l4-6-1-6-1-3c0-2-2-4-4-6l-4 2-5 5h-2l-3 2c-5 3-8 9-9 14l-2 5c0-3-3-4-5-5h-1c1 4 1 8-1 11-2-2-4-5-7-6l-5-2 13-7c6-3 10-10 14-15l4-7 1-1v-2l1 11h1c4-7 13-8 20-10l8-2 2-2c0 3-6 21-10 27" id="path4571" fill="#3d68c9"/><path d="M341 251h7l-1 1h-22 13l3-1" id="path4573" fill="#b33636"/><path d="M342 252l2 1-1 3h-12l-3 1c1 0 3-2 5-1h6l1-3 2-1z" id="path4575" fill="#b33636"/><path d="M387 254c0-1-2-1-1-3h2l1 3z" id="path4577" fill="#fff"/><path d="M387 254c0-1-2-1-1-3h2l1 3z" id="path4579" fill="none" stroke="#ed1a3a"/><path d="M388 254h-1l3 6 3-1 2 1h-5v4l2-1h5l-5-7-3-2z" id="path4581" fill="#fff"/><path d="M388 254h-1l3 6 3-1 2 1h-5v4l2-1h5l-5-7-3-2z" id="path4583" fill="none" stroke="#b33636"/><path d="M343 253v2l-3-2h3" id="path4585" fill="#3f409a"/><path d="M343 253v2l-3-2h3z" id="path4587" fill="none" stroke="#ed1a3a"/><path d="M396 252h-4l2-1 2 1" id="path4589" fill="#b33636"/><path d="M343 255l-1 2-2-1v-2l3 1" id="path4591" fill="#3f409a"/><path d="M343 255l-1 2-2-1v-2l3 1z" id="path4593" fill="none" stroke="#ed1a3a"/><path d="M401 265l-3-5 1-2 4 7-1 1z" id="path4595" fill="#fff"/><path d="M401 265l-3-5 1-2 4 7-1 1z" id="path4597" fill="none" stroke="#b33636"/><path d="M401 264l-3-4-5-6-2-1-1 2c2 0 3 2 5 4 1 2 3 6 6 8l1-1-1-2" id="path4599" fill="#fff"/><path d="M401 264l-3-4-5-6-2-1-1 2c2 0 3 2 5 4 1 2 3 6 6 8l1-1-1-2z" id="path4601" fill="none" stroke="#ed1a3a"/><path d="M403 254h-3l2-1 1 1z" id="path4603" fill="#b33636"/><path d="M397 254h-3 3z" id="path4605" fill="#b33636"/><path d="M374 256h1v1h-7l-6 1h-10c4-2 8 1 11-1l11-1" id="path4607" fill="#010101"/><path d="M374 256h1v1h-7l-6 1h-10c4-2 8 1 11-1l11-1z" id="path4609" fill="none" stroke="#b33636"/><path d="M407 256h1-6 5" id="path4611" fill="#b33636"/><path d="M447 256l-8 5 8-5z" id="path4613" fill="#ed1a3a"/><path d="M399 258l-1 2c-1-1 0-2 1-3v1" id="path4615" fill="#fff"/><path d="M399 258l-1 2c-1-1 0-2 1-3v1z" id="path4617" fill="none" stroke="#ed1a3a"/><path d="M451 263l-3-1v-3-3c2 2 3 5 3 7" id="path4619" fill="#ed1a3a"/><path d="M448 262l-3 4c-2-2-5-4-8-3 4-2 7-3 10-6l1 5" id="path4621" fill="#60bb48"/><path d="M448 262l-3 4c-2-2-5-4-8-3 4-2 7-3 10-6l1 5z" id="path4623" fill="none" stroke="#010101"/><path d="M324 262v-1c2 1 4 2 5 5v15l-4-4-7-5c-2-2-3-3-3-5h6c2 2 4 5 4 8 1-3-1-6-3-8-2-1-3-2-5-1l2-4c1 0 3-2 5-1" id="path4625" fill="#60bb48"/><path d="M324 262v-1c2 1 4 2 5 5v15l-4-4-7-5c-2-2-3-3-3-5h6c2 2 4 5 4 8 1-3-1-6-3-8-2-1-3-2-5-1l2-4c1 0 3-2 5-1z" id="path4627" fill="none" stroke="#010101"/><path d="M384 260l1 1h-2v-1h1" id="path4629" fill="#b33636"/><path d="M353 264l-1 1c-2-2-1-4-1-5 0 1 3 2 2 4" id="path4631" fill="#3f409a"/><path d="M353 264l-1 1c-2-2-1-4-1-5 0 1 3 2 2 4z" id="path4633" fill="none" stroke="#ed1a3a"/><path d="M374 261l-1 1c-2-1-4-2-6 0h-11l1-1c3-1 7 2 10 0h7" id="path4635" fill="#010101"/><path d="M374 261l-1 1c-2-1-4-2-6 0h-11l1-1c3-1 7 2 10 0h7z" id="path4637" fill="none" stroke="#b33636"/><path d="M334 263h-3 3" id="path4639" fill="#b33636"/><path d="M416 261h3c-4-1-6 2-9 0h-5 8z" id="path4641" fill="#b33636"/><path d="M423 263h-2c-2 1-4 2-6 1h-3 6c1 0 3-2 5-1" id="path4643" fill="#b33636"/><path d="M452 265c1 3 0 6-2 8l-1 2-4-8 3-4 4 2" id="path4645" fill="#60bb48"/><path d="M452 265c1 3 0 6-2 8l-1 2-4-8 3-4 4 2z" id="path4647" fill="none" stroke="#010101"/><path d="M321 275l7 6c-3 2-6 1-10 0-3-1-7-4-8-8v-1l5-5c0 4 3 6 6 8" id="path4649" fill="#ed1a3a"/><path d="M410 266l-5-2c1 0 4 0 5 2" id="path4651" fill="#3f409a"/><path d="M410 266l-5-2c1 0 4 0 5 2z" id="path4653" fill="none" stroke="#ed1a3a"/><path d="M410 266l1 2h-8c-1 1-3 2-3 4l1-5 4-2 5 1" id="path4655" fill="#3f409a"/><path d="M410 266l1 2h-8c-1 1-3 2-3 4l1-5 4-2 5 1z" id="path4657" fill="none" stroke="#ed1a3a"/><path d="M334 281c2 1 0 3 1 5 0 2 1 3 3 4l-3 2-2 3c-2-4 1-6 1-10l-1-3h1-1c-1 1-3 0-4-1 0-4 2-8 1-13 3 4 3 9 4 13" id="path4659" fill="#ed1a3a"/><path d="M396 267h4l-1 1v-1h-2-1s0 1 0 0l-1 1c0-1 0-1 0 0h-4-1v-1l4 1 2-1z" id="path4661" fill="#b33636"/><path d="M415 272v1l-2-3-2-3 5 3v3c-2 2-6 0-9 2l-5 2-2-5c0-2 2-3 4-4 3-2 7 0 9 2l2 2" id="path4663" fill="#3f409a"/><path d="M415 272v1l-2-3-2-3 5 3v3c-2 2-6 0-9 2l-5 2-2-5c0-2 2-3 4-4 3-2 7 0 9 2l2 2z" id="path4665" fill="none" stroke="#ed1a3a"/><path d="M368 271c-3-1-6 1-9 1l-2-1h2c2 1 3 0 6-1l3 1z" id="path4667" fill="#b33636"/><path d="M418 269h-2a5 5 0 0 1 2 0z" id="path4669" fill="#b33636"/><path d="M371 274l1 2c0 1 2 2 1 4l-3-1-4-4v-3c1-1 3 1 4 1l1 1" id="path4671" fill="#fff"/><path d="M371 274l1 2c0 1 2 2 1 4l-3-1-4-4v-3c1-1 3 1 4 1l1 1z" id="path4673" fill="none" stroke="#ed1a3a"/><path d="M438 272l4 4c-4 3-3 9-9 11h-1l-1-6c0-1-1-4 1-6l5-4 1 1" id="path4675" fill="#60bb48"/><path d="M393 275v-1l-2 1 2-1v1" id="path4677" fill="#b33636"/><path d="M395 274v1c2 0 3-2 4-1h1v1l-1-1-2 1h-1-2v-1l-1 1v-1h2" id="path4679" fill="#b33636"/><path d="M367 276h-10 8z" id="path4681" fill="#b33636"/><path d="M385 275v1h-12-1 1c3 0 6-2 9-1h3" id="path4683" fill="#b33636"/><path d="M356 307c-2-1-2-3-3-5l3 1 6 4 1 1c-7-1-13 5-19 2-2 0-4-2-5-4l-1-2 2-4c1 3 5 1 6 4 2 3 6 4 9 4l1-1z" id="path4685" fill="#60bb48"/><path d="M411 276h-1l-1 1v-1l-1 1h-1v1-1h-1-1-1-1l-1 1v-1 1-1l-1 1v-1 1l-1-1v1l-1-1v1h-1v-1l-1 1h-1v-1h12v-1h3" id="path4687" fill="#b33636"/><path d="M396 278s-1 0 0 0h-1-1-1-1c-1 0 0 0 0 0h4" id="path4689" fill="#b33636"/><path d="M391 279l5 2v1c-2 0-5 2-8 0l-1-4c1 1 4-1 4 1" id="path4691" fill="#fff"/><path d="M391 279l5 2v1c-2 0-5 2-8 0l-1-4c1 1 4-1 4 1z" id="path4693" fill="none" stroke="#ed1a3a"/><path d="M444 280c1 0 1 2 3 2l1-2c0 4-2 7-4 10-1 2-3 5-5 5-3 2-7 1-10 1l3-8c4-1 7-5 9-9l2-2 1 3" id="path4695" fill="#ed1a3a"/><path d="M333 283c1 3-1 9-4 11l-1 3h1c0-2 2-4 3-5v7l2 3 3 6c-4-1-6-3-8-6-3-4-3-9-4-15v-4l3-2 5 2" id="path4697" fill="#60bb48"/><path d="M333 283c1 3-1 9-4 11l-1 3h1c0-2 2-4 3-5v7l2 3 3 6c-4-1-6-3-8-6-3-4-3-9-4-15v-4l3-2 5 2z" id="path4699" fill="none" stroke="#010101"/><path d="M421 280c2 3 2 7 0 10h-1l1 1h1l1 5c1 2 0 5-2 6l-3 2-1-4h-1-2c1-2 4-2 4-4l-2-4h-1v-2l1-2v-10l5 2" id="path4701" fill="#fff"/><path d="M421 280c2 3 2 7 0 10h-1l1 1h1l1 5c1 2 0 5-2 6l-3 2-1-4h-1-2c1-2 4-2 4-4l-2-4h-1v-2l1-2v-10l5 2z" id="path4703" fill="none" stroke="#ed1a3a"/><path d="M404 280h-2v1h-1-1-1-1-1 2l3-1h2" id="path4705" fill="#b33636"/><path d="M397 281c-1 0 0 0 0 0z" id="path4707" fill="#b33636"/><path d="M386 282l-4 1h-19 8c3 0 6-2 10-1h5" id="path4709" fill="#b33636"/><path d="M403 282l-5 3-1 1-1 2v2 3l1 2v4c1 1 2 0 2 2l3 2 3-1 5 1c-2 1-5 3-7 2-3-1-7-2-8-5-3-5-2-11 1-15l3-2c1-1 4-2 6-1z" id="path4711" fill="#ed1a3a"/><path d="M403 283c-3-1-3 1-5 2l-2 2c-1 1 1 2 1 2-2 2 0 3-1 5 2 1 0 3 1 4l2 2v1c1 2 3 2 6 2 2-2 4 1 6-1l1-2v-1h-1v-1c0-2-2-1-2-3l-1-1-1-2 1-1v-1h1v-1l3-1h1l1 1-6-6-3-1-2 1" id="path4713" fill="#fff"/><path d="M403 283c-3-1-3 1-5 2l-2 2c-1 1 1 2 1 2-2 2 0 3-1 5 2 1 0 3 1 4l2 2v1c1 2 3 2 6 2 2-2 4 1 6-1l1-2v-1h-1v-1c0-2-2-1-2-3l-1-1-1-2 1-1v-1h1v-1l3-1h1l1 1-6-6-3-1-2 1z" id="path4715" fill="none" stroke="#ed1a3a"/><path d="M348 294l4 8 5 1 3-1 3-4 1-3 1-1 1-1 1-1-1-4a21 21 0 0 0-1 2h-2l1-3v2 1l2-2-3-2-4-1-2 1-1 1v2c-2 0-1 2-1 2l-2 1-2 2h-3" id="path4717" fill="#fff"/><path d="M348 294l4 8 5 1 3-1 3-4 1-3 1-1 1-1 1-1-1-4a21 21 0 0 0-1 2h-2l1-3v2 1l2-2-3-2-4-1-2 1-1 1v2c-2 0-1 2-1 2l-2 1-2 2h-3z" id="path4719" fill="none" stroke="#ed1a3a"/><path d="M348 293h-1c1-1 1-3 3-3 1-1-1-3 2-3l2-2h3v1l-1 1v2l-1 1-1 2c-2-1-2 2-4 1z" id="path4721" fill="#fcb216"/><path d="M348 293h-1c1-1 1-3 3-3 1-1-1-3 2-3l2-2h3v1l-1 1v2l-1 1-1 2c-2-1-2 2-4 1z" id="path4723" fill="none" stroke="#ed1a3a"/><path d="M384 290c1 1 0 4 2 4l3-1h2c2 2 0 5 0 7v3l-1-1h-6l2-8h-1c-2 2-4 5-4 8h-3l-4 1-1-3-2-5c1-2 1-4 3-5h10" id="path4725" fill="#ed1a3a"/><path d="M415 289l-1 2 1 1v3l-1 1v2l-1 1h-1l-1-1v-1c-2 0 0-3-2-2l-1-2h-1l1-1v-2h2v-1l3-1 2 1" id="path4727" fill="#fcb216"/><path d="M415 289l-1 2 1 1v3l-1 1v2l-1 1h-1l-1-1v-1c-2 0 0-3-2-2l-1-2h-1l1-1v-2h2v-1l3-1 2 1z" id="path4729" fill="none" stroke="#ed1a3a"/><path d="M370 295v1l1 5c-3 0-6 1-8 3v3l-2-1-4-3c1-1 4 0 4-2s3-2 3-4l1-3c1 0 1-2 3-2 0 1 0 2 2 3" id="path4731" fill="#ed1a3a"/><path d="M386 295l-3 8h7l1 1-3-1c-2 0-4 0-6 2l4 4v4l-3-6c-3 2-1 5-2 7 0 2-2 3-3 5h-5c-1-2 1-3 1-5v-6l-1-1c-2 0-2 2-3 3l-2 2c0-2 2-3 3-4l2-3-2-2-2-1-5 5h-1l2-3c2-2 4-2 7-2 1-2-1-4-1-6l-1-1c1-1 1 1 2 1l2 7h3c2-1 4 1 5-2 0-2 1-5 3-7z" id="path4733" fill="#fff"/><path d="M350 308h2-2l-6-1-5-4c4 1 6 6 11 5" id="path4735" fill="#010101"/><path d="M369 303h2l1 2c1 1-2 2-2 3l-3 4h-2l-1-4c1-2 3-5 5-5" id="path4737" fill="#ed1a3a"/><path d="M391 305v9l-2 1-2-1c1-2 0-5-1-7l-3-2c2-2 6-2 8 0" id="path4739" fill="#ed1a3a"/><path d="M381 308c-1 4-1 7-4 9h-2v-6-4c1-2 3-1 4-2 2 1 2 2 2 3" id="path4741" fill="#010101"/><path d="M380 307l-1 7-2 3-1-1v-5l-1-3c1-2 3-2 5-2z" id="path4743" fill="#ed1a3a"/><path d="M373 310v7l-1 2h-5c-1-2 2-4 1-6h1l4-6v3" id="path4745" fill="#ed1a3a"/><path d="M385 313l1 1-2 5-5 1 2-4 2-8 2 5" id="path4747" fill="#ed1a3a"/><path d="M437 343l-2 2-2-6 4 4" id="path4749" fill="#fff"/><path d="M361 144a4 4 0 0 0 4-4 4 4 0 0 0-4-4 4 4 0 0 0-4 4 4 4 0 0 0 4 4" id="path4751" fill="#fcb216"/><path d="M361 144a4 4 0 0 0 4-4 4 4 0 0 0-4-4 4 4 0 0 0-4 4 4 4 0 0 0 4 4z" id="path4753" fill="none" stroke="#ed1a3a"/><path d="M370 143a4 4 0 0 0 4-4 4 4 0 0 0-4-5 4 4 0 0 0-4 5 4 4 0 0 0 4 4" id="path4755" fill="#fcb216"/><path d="M370 143a4 4 0 0 0 4-4 4 4 0 0 0-4-5 4 4 0 0 0-4 5 4 4 0 0 0 4 4z" id="path4757" fill="none" stroke="#ed1a3a"/><path d="M352 146a4 4 0 0 0 5-4 4 4 0 0 0-5-4 4 4 0 0 0-4 4 4 4 0 0 0 4 4" id="path4759" fill="#fcb216"/><path d="M352 146a4 4 0 0 0 5-4 4 4 0 0 0-5-4 4 4 0 0 0-4 4 4 4 0 0 0 4 4z" id="path4761" fill="none" stroke="#ed1a3a"/><path d="M344 150a4 4 0 0 0 4-5 4 4 0 0 0-5-4c-2 0-4 2-4 4a4 4 0 0 0 5 5" id="path4763" fill="#fcb216"/><path d="M344 150a4 4 0 0 0 4-5 4 4 0 0 0-5-4c-2 0-4 2-4 4a4 4 0 0 0 5 5z" id="path4765" fill="none" stroke="#ed1a3a"/><path d="M335 153a4 4 0 0 0 5-4 4 4 0 0 0-5-4 4 4 0 0 0-4 4 4 4 0 0 0 4 4" id="path4767" fill="#fcb216"/><path d="M335 153a4 4 0 0 0 5-4 4 4 0 0 0-5-4 4 4 0 0 0-4 4 4 4 0 0 0 4 4z" id="path4769" fill="none" stroke="#ed1a3a"/><path d="M328 158a4 4 0 0 0 4-4c0-2-2-4-5-4a4 4 0 0 0-4 4 4 4 0 0 0 5 4" id="path4771" fill="#fcb216"/><path d="M328 158a4 4 0 0 0 4-4c0-2-2-4-5-4a4 4 0 0 0-4 4 4 4 0 0 0 5 4z" id="path4773" fill="none" stroke="#ed1a3a"/><path d="M320 164a4 4 0 0 0 4-5 4 4 0 0 0-4-4 4 4 0 0 0-4 5 4 4 0 0 0 4 4" id="path4775" fill="#fcb216"/><path d="M320 164a4 4 0 0 0 4-5 4 4 0 0 0-4-4 4 4 0 0 0-4 5 4 4 0 0 0 4 4z" id="path4777" fill="none" stroke="#ed1a3a"/><path d="M313 170a4 4 0 0 0 4-5 4 4 0 0 0-4-4c-3 0-4 2-4 5a4 4 0 0 0 4 4" id="path4779" fill="#fcb216"/><path d="M313 170a4 4 0 0 0 4-5 4 4 0 0 0-4-4c-3 0-4 2-4 5a4 4 0 0 0 4 4z" id="path4781" fill="none" stroke="#ed1a3a"/><path d="M307 176a4 4 0 0 0 4-4 4 4 0 0 0-5-4 4 4 0 0 0-4 4 4 4 0 0 0 5 4" id="path4783" fill="#fcb216"/><path d="M307 176a4 4 0 0 0 4-4 4 4 0 0 0-5-4 4 4 0 0 0-4 4 4 4 0 0 0 5 4z" id="path4785" fill="none" stroke="#ed1a3a"/><path d="M301 183a4 4 0 0 0 4-4 4 4 0 0 0-4-4 4 4 0 0 0-4 4 4 4 0 0 0 4 4" id="path4787" fill="#fcb216"/><path d="M301 183a4 4 0 0 0 4-4 4 4 0 0 0-4-4 4 4 0 0 0-4 4 4 4 0 0 0 4 4z" id="path4789" fill="none" stroke="#ed1a3a"/><path d="M296 191a4 4 0 0 0 4-5 4 4 0 0 0-4-4 4 4 0 0 0-5 5 4 4 0 0 0 5 4" id="path4791" fill="#fcb216"/><path d="M296 191a4 4 0 0 0 4-5 4 4 0 0 0-4-4 4 4 0 0 0-5 5 4 4 0 0 0 5 4z" id="path4793" fill="none" stroke="#ed1a3a"/><path d="M292 199a4 4 0 0 0 4-5 4 4 0 0 0-5-4c-2 0-4 2-4 5a4 4 0 0 0 5 4" id="path4795" fill="#fcb216"/><path d="M292 199a4 4 0 0 0 4-5 4 4 0 0 0-5-4c-2 0-4 2-4 5a4 4 0 0 0 5 4z" id="path4797" fill="none" stroke="#ed1a3a"/><path d="M288 207a4 4 0 0 0 4-4 4 4 0 0 0-4-5 4 4 0 0 0-5 5 4 4 0 0 0 5 4" id="path4799" fill="#fcb216"/><path d="M288 207a4 4 0 0 0 4-4 4 4 0 0 0-4-5 4 4 0 0 0-5 5 4 4 0 0 0 5 4z" id="path4801" fill="none" stroke="#ed1a3a"/><path d="M379 143a4 4 0 0 0 4-5 4 4 0 0 0-5-4 4 4 0 0 0-4 4 4 4 0 0 0 5 5" id="path4803" fill="#fcb216"/><path d="M379 143a4 4 0 0 0 4-5 4 4 0 0 0-5-4 4 4 0 0 0-4 4 4 4 0 0 0 5 5z" id="path4805" fill="none" stroke="#ed1a3a"/><path d="M406 146c-3 0-5-2-5-4a4 4 0 0 1 4-5 4 4 0 0 1 5 4 4 4 0 0 1-4 5" id="path4807" fill="#fcb216"/><path d="M406 146c-3 0-5-2-5-4a4 4 0 0 1 4-5 4 4 0 0 1 5 4 4 4 0 0 1-4 5z" id="path4809" fill="none" stroke="#ed1a3a"/><path d="M397 144c-3 0-5-2-5-4a4 4 0 0 1 5-4 4 4 0 0 1 4 4c0 2-2 4-4 4" id="path4811" fill="#fcb216"/><path d="M397 144c-3 0-5-2-5-4a4 4 0 0 1 5-4 4 4 0 0 1 4 4c0 2-2 4-4 4z" id="path4813" fill="none" stroke="#ed1a3a"/><path d="M414 149a4 4 0 0 1-4-5 4 4 0 0 1 8 0 4 4 0 0 1-4 5" id="path4815" fill="#fcb216"/><path d="M414 149a4 4 0 0 1-4-5 4 4 0 0 1 8 0 4 4 0 0 1-4 5z" id="path4817" fill="none" stroke="#ed1a3a"/><path d="M422 152c-2 0-4-2-4-4a4 4 0 0 1 4-5 4 4 0 0 1 5 4c0 3-2 5-5 5" id="path4819" fill="#fcb216"/><path d="M422 152c-2 0-4-2-4-4a4 4 0 0 1 4-5 4 4 0 0 1 5 4c0 3-2 5-5 5z" id="path4821" fill="none" stroke="#ed1a3a"/><path d="M431 156a4 4 0 0 1-5-4 4 4 0 0 1 4-5 4 4 0 0 1 5 4 4 4 0 0 1-4 5" id="path4823" fill="#fcb216"/><path d="M431 156a4 4 0 0 1-5-4 4 4 0 0 1 4-5 4 4 0 0 1 5 4 4 4 0 0 1-4 5z" id="path4825" fill="none" stroke="#ed1a3a"/><path d="M438 161c-2 0-4-2-4-5a4 4 0 0 1 4-4 4 4 0 0 1 5 4 4 4 0 0 1-5 5" id="path4827" fill="#fcb216"/><path d="M438 161c-2 0-4-2-4-5a4 4 0 0 1 4-4 4 4 0 0 1 5 4 4 4 0 0 1-5 5z" id="path4829" fill="none" stroke="#ed1a3a"/><path d="M445 167a4 4 0 0 1-4-5 4 4 0 0 1 4-4 4 4 0 0 1 5 4 4 4 0 0 1-5 5" id="path4831" fill="#fcb216"/><path d="M445 167a4 4 0 0 1-4-5 4 4 0 0 1 4-4 4 4 0 0 1 5 4 4 4 0 0 1-5 5z" id="path4833" fill="none" stroke="#ed1a3a"/><path d="M452 173a4 4 0 0 1-4-4 4 4 0 0 1 4-5 4 4 0 0 1 4 4 4 4 0 0 1-4 5" id="path4835" fill="#fcb216"/><path d="M452 173a4 4 0 0 1-4-4 4 4 0 0 1 4-5 4 4 0 0 1 4 4 4 4 0 0 1-4 5z" id="path4837" fill="none" stroke="#ed1a3a"/><path d="M462 188a4 4 0 0 1-4-4 4 4 0 0 1 4-5 4 4 0 0 1 5 4 4 4 0 0 1-5 5" id="path4839" fill="#fcb216"/><path d="M462 188a4 4 0 0 1-4-4 4 4 0 0 1 4-5 4 4 0 0 1 5 4 4 4 0 0 1-5 5z" id="path4841" fill="none" stroke="#ed1a3a"/><path d="M466 196a4 4 0 0 1-4-4 4 4 0 0 1 4-5c2 0 4 2 5 5a4 4 0 0 1-5 4" id="path4843" fill="#fcb216"/><path d="M466 196a4 4 0 0 1-4-4 4 4 0 0 1 4-5c2 0 4 2 5 5a4 4 0 0 1-5 4z" id="path4845" fill="none" stroke="#ed1a3a"/><path d="M470 205a4 4 0 0 1-5-4 4 4 0 0 1 4-5 4 4 0 0 1 5 4c0 3-2 5-4 5" id="path4847" fill="#fcb216"/><path d="M470 205a4 4 0 0 1-5-4 4 4 0 0 1 4-5 4 4 0 0 1 5 4c0 3-2 5-4 5z" id="path4849" fill="none" stroke="#ed1a3a"/><path d="M472 213a4 4 0 0 1-4-4 4 4 0 0 1 4-4 4 4 0 0 1 4 4 4 4 0 0 1-4 4" id="path4851" fill="#fcb216"/><path d="M472 213a4 4 0 0 1-4-4 4 4 0 0 1 4-4 4 4 0 0 1 4 4 4 4 0 0 1-4 4z" id="path4853" fill="none" stroke="#ed1a3a"/><path d="M473 222a4 4 0 0 1-4-4c0-2 2-4 4-4a4 4 0 0 1 5 4 4 4 0 0 1-5 4" id="path4855" fill="#fcb216"/><path d="M473 222a4 4 0 0 1-4-4c0-2 2-4 4-4a4 4 0 0 1 5 4 4 4 0 0 1-5 4z" id="path4857" fill="none" stroke="#ed1a3a"/><path d="M388 143c-3 0-5-2-5-4a4 4 0 0 1 4-5 4 4 0 0 1 5 4 4 4 0 0 1-4 5" id="path4859" fill="#fcb216"/><path d="M388 143c-3 0-5-2-5-4a4 4 0 0 1 4-5 4 4 0 0 1 5 4 4 4 0 0 1-4 5z" id="path4861" fill="none" stroke="#ed1a3a"/><path d="M379 320a4 4 0 0 1 4 4 4 4 0 0 1-4 5 4 4 0 0 1-4-4c-1-3 1-5 4-5" id="path4863" fill="#fcb216"/><path d="M379 320a4 4 0 0 1 4 4 4 4 0 0 1-4 5 4 4 0 0 1-4-4c-1-3 1-5 4-5z" id="path4865" fill="none" stroke="#ed1a3a"/><path d="M370 320a4 4 0 0 1 0 9 4 4 0 1 1 0-9" id="path4867" fill="#fcb216"/><path d="M370 320a4 4 0 0 1 0 9 4 4 0 1 1 0-9z" id="path4869" fill="none" stroke="#ed1a3a"/><path d="M361 319a4 4 0 0 1 4 4 4 4 0 0 1-4 5 4 4 0 0 1-4-4c0-3 1-5 4-5" id="path4871" fill="#fcb216"/><path d="M361 319a4 4 0 0 1 4 4 4 4 0 0 1-4 5 4 4 0 0 1-4-4c0-3 1-5 4-5z" id="path4873" fill="none" stroke="#ed1a3a"/><path d="M352 317a4 4 0 0 1 5 4 4 4 0 0 1-5 5c-2 0-4-2-4-4a4 4 0 0 1 4-5" id="path4875" fill="#fcb216"/><path d="M352 317a4 4 0 0 1 5 4 4 4 0 0 1-5 5c-2 0-4-2-4-4a4 4 0 0 1 4-5z" id="path4877" fill="none" stroke="#ed1a3a"/><path d="M344 314c2 0 4 2 4 4a4 4 0 0 1-4 5 4 4 0 0 1-4-4 4 4 0 0 1 4-5" id="path4879" fill="#fcb216"/><path d="M344 314c2 0 4 2 4 4a4 4 0 0 1-4 5 4 4 0 0 1-4-4 4 4 0 0 1 4-5z" id="path4881" fill="none" stroke="#ed1a3a"/><path d="M335 311a4 4 0 0 1 5 4 4 4 0 0 1-4 4 4 4 0 0 1-5-4 4 4 0 0 1 4-4" id="path4883" fill="#fcb216"/><path d="M335 311a4 4 0 0 1 5 4 4 4 0 0 1-4 4 4 4 0 0 1-5-4 4 4 0 0 1 4-4z" id="path4885" fill="none" stroke="#ed1a3a"/><path d="M328 306a4 4 0 0 1 4 5 4 4 0 0 1-4 4 4 4 0 0 1-4-4 4 4 0 0 1 4-5" id="path4887" fill="#fcb216"/><path d="M328 306a4 4 0 0 1 4 5 4 4 0 0 1-4 4 4 4 0 0 1-4-4 4 4 0 0 1 4-5z" id="path4889" fill="none" stroke="#ed1a3a"/><path d="M321 301a4 4 0 0 1 4 4 4 4 0 0 1-4 5 4 4 0 0 1-5-4c0-3 2-5 5-5" id="path4891" fill="#fcb216"/><path d="M321 301a4 4 0 0 1 4 4 4 4 0 0 1-4 5 4 4 0 0 1-5-4c0-3 2-5 5-5z" id="path4893" fill="none" stroke="#ed1a3a"/><path d="M314 296a4 4 0 0 1 4 4 4 4 0 0 1-4 4 4 4 0 0 1-4-4 4 4 0 0 1 4-4" id="path4895" fill="#fcb216"/><path d="M314 296a4 4 0 0 1 4 4 4 4 0 0 1-4 4 4 4 0 0 1-4-4 4 4 0 0 1 4-4z" id="path4897" fill="none" stroke="#ed1a3a"/><path d="M307 289a4 4 0 0 1 5 5 4 4 0 0 1-4 4c-3 0-5-2-5-4a4 4 0 0 1 4-5" id="path4899" fill="#fcb216"/><path d="M307 289a4 4 0 0 1 5 5 4 4 0 0 1-4 4c-3 0-5-2-5-4a4 4 0 0 1 4-5z" id="path4901" fill="none" stroke="#ed1a3a"/><path d="M302 282a4 4 0 1 1-5 5c0-3 2-5 5-5" id="path4903" fill="#fcb216"/><path d="M302 282a4 4 0 1 1-5 5c0-3 2-5 5-5z" id="path4905" fill="none" stroke="#ed1a3a"/><path d="M297 275a4 4 0 0 1 4 4 4 4 0 0 1-4 5 4 4 0 0 1-4-5 4 4 0 0 1 4-4" id="path4907" fill="#fcb216"/><path d="M297 275a4 4 0 0 1 4 4 4 4 0 0 1-4 5 4 4 0 0 1-4-5 4 4 0 0 1 4-4z" id="path4909" fill="none" stroke="#ed1a3a"/><path d="M397 319a4 4 0 0 0-4 5c0 2 2 4 4 4a4 4 0 0 0 4-5 4 4 0 0 0-4-4" id="path4911" fill="#fcb216"/><path d="M397 319a4 4 0 0 0-4 5c0 2 2 4 4 4a4 4 0 0 0 4-5 4 4 0 0 0-4-4z" id="path4913" fill="none" stroke="#ed1a3a"/><path d="M388 320a4 4 0 0 0-4 5 4 4 0 0 0 4 4 4 4 0 0 0 4-5c0-2-2-4-4-4" id="path4915" fill="#fcb216"/><path d="M388 320a4 4 0 0 0-4 5 4 4 0 0 0 4 4 4 4 0 0 0 4-5c0-2-2-4-4-4z" id="path4917" fill="none" stroke="#ed1a3a"/><path d="M405 317a4 4 0 0 0-4 4 4 4 0 0 0 9 0 4 4 0 0 0-5-4" id="path4919" fill="#fcb216"/><path d="M405 317a4 4 0 0 0-4 4 4 4 0 0 0 9 0 4 4 0 0 0-5-4z" id="path4921" fill="none" stroke="#ed1a3a"/><path d="M414 314a4 4 0 0 0-4 4 4 4 0 0 0 4 4 4 4 0 0 0 4-4c0-2-2-4-4-4" id="path4923" fill="#fcb216"/><path d="M414 314a4 4 0 0 0-4 4 4 4 0 0 0 4 4 4 4 0 0 0 4-4c0-2-2-4-4-4z" id="path4925" fill="none" stroke="#ed1a3a"/><path d="M422 310a4 4 0 1 0 4 4 4 4 0 0 0-4-4" id="path4927" fill="#fcb216"/><path d="M422 310a4 4 0 1 0 4 4 4 4 0 0 0-4-4z" id="path4929" fill="none" stroke="#ed1a3a"/><path d="M430 306a4 4 0 0 0-4 4 4 4 0 0 0 4 4c2 0 4-2 4-4a4 4 0 0 0-4-4" id="path4931" fill="#fcb216"/><path d="M430 306a4 4 0 0 0-4 4 4 4 0 0 0 4 4c2 0 4-2 4-4a4 4 0 0 0-4-4z" id="path4933" fill="none" stroke="#ed1a3a"/><path d="M437 300a4 4 0 0 0-4 5 4 4 0 0 0 8-1c0-2-2-4-4-4" id="path4935" fill="#fcb216"/><path d="M437 300a4 4 0 0 0-4 5 4 4 0 0 0 8-1c0-2-2-4-4-4z" id="path4937" fill="none" stroke="#ed1a3a"/><path d="M444 295a4 4 0 0 0-4 4 4 4 0 0 0 4 4 4 4 0 0 0 4-4 4 4 0 0 0-4-4" id="path4939" fill="#fcb216"/><path d="M444 295a4 4 0 0 0-4 4 4 4 0 0 0 4 4 4 4 0 0 0 4-4 4 4 0 0 0-4-4z" id="path4941" fill="none" stroke="#ed1a3a"/><path d="M450 288c-2 0-4 2-4 5a4 4 0 0 0 8-1 4 4 0 0 0-4-4" id="path4943" fill="#fcb216"/><path d="M450 288c-2 0-4 2-4 5a4 4 0 0 0 8-1 4 4 0 0 0-4-4z" id="path4945" fill="none" stroke="#ed1a3a"/><path d="M455 281a4 4 0 0 0-4 5 4 4 0 0 0 5 4c2 0 4-2 4-5a4 4 0 0 0-5-4" id="path4947" fill="#fcb216"/><path d="M455 281a4 4 0 0 0-4 5 4 4 0 0 0 5 4c2 0 4-2 4-5a4 4 0 0 0-5-4z" id="path4949" fill="none" stroke="#ed1a3a"/><path d="M461 274a4 4 0 0 0-5 4c0 3 2 5 5 5a4 4 0 0 0 4-5 4 4 0 0 0-4-4" id="path4951" fill="#fcb216"/><path d="M461 274a4 4 0 0 0-5 4c0 3 2 5 5 5a4 4 0 0 0 4-5 4 4 0 0 0-4-4z" id="path4953" fill="none" stroke="#ed1a3a"/><path d="M465 266a4 4 0 0 0-4 5 4 4 0 0 0 8-1 4 4 0 0 0-4-4" id="path4955" fill="#fcb216"/><path d="M465 266a4 4 0 0 0-4 5 4 4 0 0 0 8-1 4 4 0 0 0-4-4z" id="path4957" fill="none" stroke="#ed1a3a"/><path d="M468 258a4 4 0 0 0-4 4 4 4 0 0 0 4 4 4 4 0 0 0 4-4 4 4 0 0 0-4-4" id="path4959" fill="#fcb216"/><path d="M468 258a4 4 0 0 0-4 4 4 4 0 0 0 4 4 4 4 0 0 0 4-4 4 4 0 0 0-4-4z" id="path4961" fill="none" stroke="#ed1a3a"/><path d="M471 249c-3 0-5 2-5 5a4 4 0 0 0 5 4 4 4 0 0 0 4-5 4 4 0 0 0-4-4" id="path4963" fill="#fcb216"/><path d="M471 249c-3 0-5 2-5 5a4 4 0 0 0 5 4 4 4 0 0 0 4-5 4 4 0 0 0-4-4z" id="path4965" fill="none" stroke="#ed1a3a"/><path d="M473 240a4 4 0 0 0-4 5 4 4 0 0 0 8 0 4 4 0 0 0-4-5" id="path4967" fill="#fcb216"/><path d="M473 240a4 4 0 0 0-4 5 4 4 0 0 0 8 0 4 4 0 0 0-4-5z" id="path4969" fill="none" stroke="#ed1a3a"/><path d="M473 232c-2 0-4 2-4 4a4 4 0 0 0 5 4 4 4 0 0 0 4-4 4 4 0 0 0-5-4" id="path4971" fill="#fcb216"/><path d="M473 232c-2 0-4 2-4 4a4 4 0 0 0 5 4 4 4 0 0 0 4-4 4 4 0 0 0-5-4z" id="path4973" fill="none" stroke="#ed1a3a"/><path d="M473 222c-2 1-4 3-4 5a4 4 0 0 0 5 4c2 0 4-2 4-4a4 4 0 0 0-5-5" id="path4975" fill="#fcb216"/><path d="M473 222c-2 1-4 3-4 5a4 4 0 0 0 5 4c2 0 4-2 4-4a4 4 0 0 0-5-5z" id="path4977" fill="none" stroke="#ed1a3a"/><path d="M285 215a4 4 0 0 0 4-4 4 4 0 0 0-4-4 4 4 0 0 0-4 4 4 4 0 0 0 4 4" id="path4979" fill="#fcb216"/><path d="M285 215a4 4 0 0 0 4-4 4 4 0 0 0-4-4 4 4 0 0 0-4 4 4 4 0 0 0 4 4z" id="path4981" fill="none" stroke="#ed1a3a"/><path d="M284 224a4 4 0 0 0 4-4 4 4 0 0 0-5-5 4 4 0 0 0-4 5 4 4 0 0 0 5 4" id="path4983" fill="#fcb216"/><path d="M284 224a4 4 0 0 0 4-4 4 4 0 0 0-5-5 4 4 0 0 0-4 5 4 4 0 0 0 5 4z" id="path4985" fill="none" stroke="#ed1a3a"/><path d="M283 233a4 4 0 0 0 4-5 4 4 0 0 0-4-4 4 4 0 0 0 0 9" id="path4987" fill="#fcb216"/><path d="M283 233a4 4 0 0 0 4-5 4 4 0 0 0-4-4 4 4 0 0 0 0 9z" id="path4989" fill="none" stroke="#ed1a3a"/><path d="M283 242a4 4 0 0 0 4-5 4 4 0 0 0-4-4 4 4 0 0 0-4 5 4 4 0 0 0 4 4" id="path4991" fill="#fcb216"/><path d="M283 242a4 4 0 0 0 4-5 4 4 0 0 0-4-4 4 4 0 0 0-4 5 4 4 0 0 0 4 4z" id="path4993" fill="none" stroke="#ed1a3a"/><path d="M285 251a4 4 0 0 0 4-5c0-2-2-4-5-4a4 4 0 0 0-4 4 4 4 0 0 0 5 5" id="path4995" fill="#fcb216"/><path d="M285 251a4 4 0 0 0 4-5c0-2-2-4-5-4a4 4 0 0 0-4 4 4 4 0 0 0 5 5z" id="path4997" fill="none" stroke="#ed1a3a"/><path d="M287 259a4 4 0 0 0 4-4c0-3-2-4-5-4a4 4 0 0 0-4 4 4 4 0 0 0 5 4" id="path4999" fill="#fcb216"/><path d="M287 259a4 4 0 0 0 4-4c0-3-2-4-5-4a4 4 0 0 0-4 4 4 4 0 0 0 5 4z" id="path5001" fill="none" stroke="#ed1a3a"/><path d="M289 268a4 4 0 0 0 4-5 4 4 0 0 0-8 0 4 4 0 0 0 4 5" id="path5003" fill="#fcb216"/><path d="M289 268a4 4 0 0 0 4-5 4 4 0 0 0-8 0 4 4 0 0 0 4 5z" id="path5005" fill="none" stroke="#ed1a3a"/><path d="M293 276a4 4 0 0 0 4-5c0-2-2-4-4-4a4 4 0 0 0-5 4 4 4 0 0 0 5 5" id="path5007" fill="#fcb216"/><path d="M293 276a4 4 0 0 0 4-5c0-2-2-4-4-4a4 4 0 0 0-5 4 4 4 0 0 0 5 5z" id="path5009" fill="none" stroke="#ed1a3a"/><path d="M458 180a4 4 0 1 1 4-4c0 2-2 4-4 4" id="path5011" fill="#fcb216"/><path d="M458 180a4 4 0 1 1 4-4c0 2-2 4-4 4z" id="path5013" fill="none" stroke="#ed1a3a"/><path d="M504 181l2 5h5l-4 3 2 5-4-3-4 3 1-5-4-3h5l1-5" id="path5015" fill="#fcb216"/><path d="M504 181l2 5h5l-4 3 2 5-4-3-4 3 1-5-4-3h5l1-5z" id="path5017" fill="none" stroke="#ed1a3a"/><path d="M491 184l2 5h5l-4 3 2 4-4-2-4 3 1-5-4-3h5z" id="path5019" fill="#fcb216"/><path d="M491 184l2 5h5l-4 3 2 4-4-2-4 3 1-5-4-3h5z" id="path5021" fill="none" stroke="#ed1a3a"/><path d="M477 182l2 4h5l-4 3 2 5-5-3-4 3 2-4-4-3 5-1 1-4" id="path5023" fill="#fcb216"/><path d="M477 182l2 4h5l-4 3 2 5-5-3-4 3 2-4-4-3 5-1 1-4z" id="path5025" fill="none" stroke="#ed1a3a"/><path d="M483 195l2 5h5l-4 3 1 5-4-3-4 3 1-5-4-3h5l2-5" id="path5027" fill="#fcb216"/><path d="M483 195l2 5h5l-4 3 1 5-4-3-4 3 1-5-4-3h5l2-5z" id="path5029" fill="none" stroke="#ed1a3a"/><path d="M254 181l-1 5h-5l4 3-1 5 4-3 4 2-2-4 4-3h-5z" id="path5031" fill="#fcb216"/><path d="M254 181l-1 5h-5l4 3-1 5 4-3 4 2-2-4 4-3h-5z" id="path5033" fill="none" stroke="#ed1a3a"/><path d="M267 183l-1 4-5 1 4 3-1 4 4-3 4 3-2-5 4-3h-5z" id="path5035" fill="#fcb216"/><path d="M267 183l-1 4-5 1 4 3-1 4 4-3 4 3-2-5 4-3h-5z" id="path5037" fill="none" stroke="#ed1a3a"/><path d="M281 180l-1 4-5 1 4 2-1 5 4-3 4 3-2-5 4-3h-5z" id="path5039" fill="#fcb216"/><path d="M281 180l-1 4-5 1 4 2-1 5 4-3 4 3-2-5 4-3h-5z" id="path5041" fill="none" stroke="#ed1a3a"/><path d="M277 193l-2 5h-5l4 3-1 5 4-3 4 3-2-5 4-3h-5z" id="path5043" fill="#fcb216"/><path d="M277 193l-2 5h-5l4 3-1 5 4-3 4 3-2-5 4-3h-5z" id="path5045" fill="none" stroke="#ed1a3a"/><path d="M297 343l-4-2-4 3 2-5-5-3h5l2-5 2 4h5l-4 4z" id="path5047" fill="#fcb216"/><path d="M297 343l-4-2-4 3 2-5-5-3h5l2-5 2 4h5l-4 4z" id="path5049" fill="none" stroke="#ed1a3a"/><path d="M307 331l-4-3-4 3 1-5-4-3h5l1-5 2 5h5l-4 3z" id="path5051" fill="#fcb216"/><path d="M307 331l-4-3-4 3 1-5-4-3h5l1-5 2 5h5l-4 3z" id="path5053" fill="none" stroke="#ed1a3a"/><path d="M322 324l-4-2-4 2 1-4-4-3 5-1 2-4 1 4h5l-4 4z" id="path5055" fill="#fcb216"/><path d="M322 324l-4-2-4 2 1-4-4-3 5-1 2-4 1 4h5l-4 4z" id="path5057" fill="none" stroke="#ed1a3a"/><path d="M309 314l-4-2-4 3 1-5-4-3h5l2-5 1 5h5l-4 3z" id="path5059" fill="#fcb216"/><path d="M309 314l-4-2-4 3 1-5-4-3h5l2-5 1 5h5l-4 3z" id="path5061" fill="none" stroke="#ed1a3a"/><path d="M460 345l4-3 4 3-2-5 4-3h-5l-2-5-1 5h-5l4 3-1 5" id="path5063" fill="#fcb216"/><path d="M460 345l4-3 4 3-2-5 4-3h-5l-2-5-1 5h-5l4 3-1 5z" id="path5065" fill="none" stroke="#ed1a3a"/><path d="M449 333l4-3 5 3-2-5 4-3h-5l-2-5-1 5h-5l4 3-2 5" id="path5067" fill="#fcb216"/><path d="M449 333l4-3 5 3-2-5 4-3h-5l-2-5-1 5h-5l4 3-2 5z" id="path5069" fill="none" stroke="#ed1a3a"/><path d="M434 328l4-3 4 2-2-4 4-4-5 1-2-5-1 5h-5l4 3z" id="path5071" fill="#fcb216"/><path d="M434 328l4-3 4 2-2-4 4-4-5 1-2-5-1 5h-5l4 3z" id="path5073" fill="none" stroke="#ed1a3a"/><path d="M446 317l4-3 4 3-1-5 4-3h-5l-2-5-2 5h-5l4 3z" id="path5075" fill="#fcb216"/><path d="M446 317l4-3 4 3-1-5 4-3h-5l-2-5-2 5h-5l4 3z" id="path5077" fill="none" stroke="#ed1a3a"/><path d="M376 123l2 4h3l-3 2 2 3-3-2-3 2 1-3-3-2h3z" id="path5079" fill="#fcb216"/><path d="M376 123l2 4h3l-3 2 2 3-3-2-3 2 1-3-3-2h3z" id="path5081" fill="none" stroke="#ed1a3a"/><path d="M391 124l2 3h3l-3 2 2 3-3-2-3 3 1-4-3-2h3z" id="path5083" fill="#fcb216"/><path d="M391 124l2 3h3l-3 2 2 3-3-2-3 3 1-4-3-2h3z" id="path5085" fill="none" stroke="#ed1a3a"/><path d="M384 105l2 7h7l-5 4 2 7-6-4-5 4 1-7-5-4h7l2-7" id="path5087" fill="#fcb216"/><path d="M384 105l2 7h7l-5 4 2 7-6-4-5 4 1-7-5-4h7l2-7z" id="path5089" fill="none" stroke="#ed1a3a"/><path d="M362 149l-1-2h4l2 10h-2l-2-8z" id="path5091" fill="#fcb216"/><path d="M369 149c0-2 2-3 4-3s3 1 3 3a3 3 0 0 1-1 2c1 0 2 1 2 3 0 1-2 3-4 3s-4-1-4-3l2-3a3 3 0 0 1-2-2zm3 5l1 1c1 0 2-1 1-2l-1-1-1 2zm0-5l1 1 1-1-1-2c-1 0-2 1-1 2" id="path5093" fill="#fcb216"/><path d="M383 148v2c2 0 4 2 4 3-1 3-2 4-5 4l-3-2 1-1 2 1 2-2-2-2a3 3 0 0 0-2 1l2-6 5 1-1 1z" id="path5095" fill="#fcb216"/><path d="M390 149l4-2c2 1 3 2 2 4l-2 2c2 1 2 2 2 3-1 2-3 2-5 2-2-1-3-2-3-4l3-2a3 3 0 0 1-1-3zm1 5c-1 1 0 2 1 2 1 1 1 0 1-1 1-1 0-2-1-2l-1 1zm1-4l1 2 1-1v-2l-2 1" id="path5097" fill="#fcb216"/><path d="M312 347l9-21 5 3-4 15 8-14 6 3-10 21-2-2 7-17-10 16-3-1 5-19-8 18z" id="path5099" fill="#ed1a3a"/><path d="M331 356l8-22 3 2-8 21z" id="path5101" fill="#ed1a3a"/><path d="M345 336l5 2-1 17 5-16 3 1-6 22-5-1 1-19-5 17-3-1z" id="path5103" fill="#ed1a3a"/><path d="M359 340l6 1 1 18 3-17h3l-3 23-5-1-2-18-3 18-3-1z" id="path5105" fill="#ed1a3a"/><path d="M375 365l-1-23h10v4l-6 1v4h6v5h-6v5l7-1v5h-10" id="path5107" fill="#ed1a3a"/><path d="M394 347l-1-2h-1l-2 2 3 2c2 1 5 1 6 7 1 5-2 8-5 8s-6-1-7-7l4-1c0 3 1 4 3 3 1 0 2-1 1-2 0-3-3-2-6-4l-2-5c-1-6 2-8 4-8 3 0 6 1 7 7z" id="path5109" fill="#ed1a3a"/><path d="M400 350c-2-7 0-12 4-13 5-1 8 3 9 10 2 8 0 13-4 13-4 1-7-2-9-10zm5-9c-2 1-2 5-1 8 0 4 2 8 4 7 3 0 2-4 2-8-1-3-2-7-5-7" id="path5111" fill="#ed1a3a"/><path d="M417 339l-4 1-2-4 12-4 1 5-4 1 6 18-4 1z" id="path5113" fill="#ed1a3a"/><path d="M432 354l-5-23 4-2 15 18-4 2-3-4-5 3 1 4zm4-12l-5-8 2 9z" id="path5115" fill="#ed1a3a"/><path d="M354 156l2 1 1 1 1 3v1l1-2-1-2-2-2h-2" id="path5117" fill="#3f409a"/><path d="M357 163l-1 1-1 1z" id="path5119" fill="#3f409a"/><path d="M355 165l-1 1-1 2 1-1 1-2" id="path5121" fill="#3f409a"/><path d="M353 169l-3 3 1-1z" id="path5123" fill="#3f409a"/><path d="M377 160c-6 2-10 7-13 13-3 3-8 5-12 7-6 1-12 1-16 4l-2 1 2-3c4-3 10-4 15-5l3-1c5-3 8-10 14-12-5 0-7 5-10 8l-10 5c-5 1-10 2-14 6l-1 2 1-3c5-4 12-4 16-9 5-3 6-10 12-12l11-1z" id="path5125" fill="#60bb48"/><path d="M377 160c-6 2-10 7-13 13-3 3-8 5-12 7-6 1-12 1-16 4l-2 1 2-3c4-3 10-4 15-5l3-1c5-3 8-10 14-12-5 0-7 5-10 8l-10 5c-5 1-10 2-14 6l-1 2 1-3c5-4 12-4 16-9 5-3 6-10 12-12l11-1z" id="path5127" fill="none" stroke="#010101"/><path d="M349 170l-2 1v1h1a99 99 0 0 1 1-2" id="path5129" fill="#3f409a"/><path d="M347 173h-2l-1 1h1l2-1" id="path5131" fill="#3f409a"/><path d="M411 157l-2 1h-3l-2 2v-1l2-2h5" id="path5133" fill="#3f409a"/><path d="M404 162v2l1 2-1-2z" id="path5135" fill="#3f409a"/><path d="M411 170l2 1v1l-2-2" id="path5137" fill="#3f409a"/><path d="M412 173h2l1 1h-1l-2-1" id="path5139" fill="#3f409a"/><path d="M406 166v1z" id="path5141" fill="#3f409a"/><path d="M399 187c2 2 1 5 0 7-1 1-2 2-3 1-5-3-10 0-14 2h-12l-6 1h-10l-8-2h-3-2l-7-1c-2-1-5 0-7-2l2-2 3-6h4c8 0 15 2 23 1l20-2c5 1 9-3 14-1l6 4" id="path5143" fill="#ed1a3a"/><path d="M431 189l1 9-2 1-5 2h-17l-9 1-3 1c-3 2-7 1-10 2l-3-1-4-2 12-1 7-3 4-6 1-1c4 0 8-3 13-2 3 1 5-1 8-1l3-1 4 2" id="path5145" fill="#ed1a3a"/><path d="M332 193l1-7h1v6h2v1z" id="path5147" fill="#fcb216"/><path d="M337 189h-1l1-3h1l-1 3" id="path5149" fill="#fcb216"/><path d="M339 194l1-7h4v1h-2l-1 2h3v1h-3v1l3 1v1z" id="path5151" fill="#fcb216"/><path d="M349 189h-2v-1h5v2l-2-1v6h-2z" id="path5153" fill="#fcb216"/><path d="M354 192c0-2 1-4 3-4s3 2 3 4-1 4-3 4-3-2-3-4zm3-2l-1 2 1 2 1-2-1-2" id="path5155" fill="#fcb216"/><path d="M363 195v-6h2v6z" id="path5157" fill="#fcb216"/><path d="M369 194v-7h1v6h3v1z" id="path5159" fill="#fcb216"/><path d="M376 194v-7h4v1h-3v2h3v1h-3v2h3v1z" id="path5161" fill="#fcb216"/><path d="M387 186c2 0 3 1 3 3 0 3-1 4-3 4h-2v-7zm-1 6h1l2-2c0-2-1-3-2-2h-1z" id="path5163" fill="#fcb216"/><path d="M397 186v5c0 1-1 2-3 2-1 0-2 0-2-2v-5h1v5l1 1 1-1v-5h2" id="path5165" fill="#fcb216"/><path d="M403 197v-3l1-1 1 2 3-3h1l-2 4v4h-1l-1-3-1 1-2 2h-2l3-3" id="path5167" fill="#fcb216"/><path d="M411 196c0-3 1-4 2-4 2 0 3 1 3 3 0 3-1 4-2 4-2 0-3-1-3-3zm2-3l-1 3c0 1 0 2 2 2l1-2c0-2-1-3-2-3" id="path5169" fill="#fcb216"/><path d="M420 198h-1l-1-6 3-1 2 2-1 2 1 2v1h-1l-1-1v-1h-1v2zm0-4h1l-1-1v1z" id="path5171" fill="#fcb216"/><path d="M427 191c2 0 3 1 4 3 0 3-2 4-3 4h-3v-7zm0 5c1 0 2 0 2-2l-2-2z" id="path5173" fill="#fcb216"/><path d="M383 173h2l2-2c3 1 7 0 8 3v2l2 1 3 2 7 2c1 2 4 2 6 3v2l-6 1-1 1v1l8-2 5-1v1c-4 1-8 0-11 2l-2-1v-1l6-1v-1c-1-2-3-1-4-2-2-3-6-3-9-5-1-2-6 0-4-3l-2-2v-1h-1-6l-2 2s-1 0 0 0h-1l-2-3h-6l-4 1 5-1h4c1-1 2 1 3 2" id="path5175" fill="#3f409a"/><path d="M378 176h5l-2 1c-1-2-4 0-5-2l2 1" id="path5177" fill="#3f409a"/><path d="M344 184l1-1h-1 5v-1h7l2-2 2-1 4-3h3l1-2m-6 11v-1l3-2h2m7 0h1l6-1-2 1h5m16 3h4l1 1" id="path5179" fill="none" stroke="#3f409a" stroke-linecap="round"/><path d="M378 198h4l6-1c1 0 3-2 4-1h3v2l-3 2h-4l-5 1h-4l-1-2h-1z" id="path5181" fill="#ed1a3a"/><path d="M439 192c3 3 6 7 7 12 0 4-2 8-1 11l1 2-9-3c-4-3-3-8-3-11 0-4 0-10-2-14l7 3" id="path5183" fill="#ed1a3a"/><path d="M456 218v-2l-3-2v1l3 3" id="path5185" fill="#3f409a"/><path d="M460 218l1-2v-1h-1v3" id="path5187" fill="#3f409a"/><path d="M457 219l-1 2 1-1 2-1-1-1-1 1" id="path5189" fill="#3f409a"/><path d="M468 223v4c-3 3-7 7-11 8 0-1 0-4 2-4l1-2-2-6 6-2c3-1 4 1 4 2" id="path5191" fill="#ed1a3a"/><path d="M444 225c-1 2-3 4-1 5 0 1 2 1 1 2v1c1 2 3 2 4 2l1-1 1 2c2 0 3-4 5-2h4c-3 3-9 5-13 3-3-2-5-4-5-6 0-3 0-6 3-7v1" id="path5193" fill="#ed1a3a"/><path d="M315 218h-1l2 3-6 8h-10c-2-2 0-6 0-8 1 1 0 3 2 3h2l1-1 2-1 1-2v-2l-1-2h4a22 22 0 0 1 4 2" id="path5195" fill="#fff"/><path d="M306 216h-2v4s0 1 0 0v-1-3l-1 1-3 3c2 1 0 4 3 4h1c0-2 2-1 3-2l1-2v-1c1-1-1-2-1-3z" id="path5197" fill="#fcb216"/><path d="M306 216h-2v4s0 1 0 0v-1-3l-1 1-3 3c2 1 0 4 3 4h1c0-2 2-1 3-2l1-2v-1c1-1-1-2-1-3z" id="path5199" fill="none" stroke="#ed1a3a"/><path d="M314 217l-3-1h-4c0-2 2-2 4-3l3-1 2-2c1 0 0 6-2 7" id="path5201" fill="#fff"/><path d="M314 217l-3-1h-4c0-2 2-2 4-3l3-1 2-2c1 0 0 6-2 7z" id="path5203" fill="none" stroke="#ed1a3a"/><path d="M304 215h2l1-1h-1l-2 1" id="path5205" fill="#3f409a"/><path d="M298 214l2 2-1-1v-1-2l-1 2" id="path5207" fill="#3f409a"/><path d="M343 291v0" id="path5209" fill="#3f409a"/><path d="M340 292l3-1-1 1-1 1-1 1v-2" id="path5211" fill="#3f409a"/><path d="M344 291l1-2v-1h-1v3" id="path5213" fill="#3f409a"/><path d="M342 287l1 3-1-1v-1l-2-2 2 1" id="path5215" fill="#3f409a"/><path d="M345 294l2 1v1h-1l-1-2" id="path5217" fill="#3f409a"/><path d="M355 307h-2c-3 0-6-2-8-4v-1l-3-4 2 4c-1 0-4-1-4-3l4-5h0v1c-2 3-6 4-6 8l-1 4-4-10c0-3 3-6 6-6l2-1h-3c-3-3-3-7-2-10l3-3 3 1-2 2v1c3 2 7 4 8 7l-1 4h-1l2 2c3 3 3 4 4 8l3 5h1-1" id="path5219" fill="#fff"/><path d="M355 307h-2c-3 0-6-2-8-4v-1l-3-4 2 4c-1 0-4-1-4-3l4-5h0v1c-2 3-6 4-6 8l-1 4-4-10c0-3 3-6 6-6l2-1h-3c-3-3-3-7-2-10l3-3 3 1-2 2v1c3 2 7 4 8 7l-1 4h-1l2 2c3 3 3 4 4 8l3 5h1-1z" id="path5221" fill="none" stroke="#ed1a3a"/><path d="M419 298s3-3 0-7l-1-1-1 1c5 4 2 7 2 7" id="path5223" fill="#3f409a"/><path d="M419 285l1 3-1 1h-1c2-1 1-4 1-4" id="path5225" fill="#3f409a"/><path d="M439 245l3-1v9h-2v-7z" id="path5227" fill="#fcb216"/><path d="M445 244c0-2 1-3 2-3 2 0 3 1 3 2l-1 2 1 3-2 2c-2 0-3-1-3-2l1-2-1-2zm1 4l2 1 1-1-1-2-2 2zm0-4l2 1v-1l-1-2-1 2" id="path5229" fill="#fcb216"/><path d="M453 247l2-1 1-1h-1c-2 0-3-1-3-2 0-2 1-4 3-4s3 1 3 3v4l-4 2-1-1" id="path5231" fill="#fcb216"/><path d="M461 244l1 1 1-2-1-1v-1l1-2-1-1-1 1-1-1 2-1 3 2-1 2 1 2c0 2-1 3-3 3l-3-2z" id="path5233" fill="#fcb216"/><path d="M454 242l1 2 1-2-1-1-1 1" id="path5235" fill="#ed1a3a"/><path d="M296 235v-1h3l-1 8h-2l1-6z" id="path5237" fill="#fcb216"/><path d="M301 238c0-2 2-2 3-2l2 2-1 2 1 3c0 1-1 2-3 2-1 0-3-1-2-3l1-2-1-2zm1 4l1 2 2-2-1-1-2 1zm1-4l1 1 1-1-1-1-1 1" id="path5239" fill="#fcb216"/><path d="M313 246h2l1-1h-2c-1 0-2-2-1-3 0-2 2-3 4-2l2 4-2 3-5 1 1-2" id="path5241" fill="#fcb216"/><path d="M315 242v2l2-1-1-2-1 1" id="path5243" fill="#ed1a3a"/><path d="M309 239l3-1-2 9h-2l1-7z" id="path5245" fill="#fcb216"/><path d="M336 296s1-4 6-5l1 1v1c-5-1-7 3-7 3" id="path5247" fill="#3f409a"/><path d="M345 294l3 2v1l-1 1c1-2-2-4-2-4" id="path5249" fill="#3f409a"/><path d="M339 283s0 5 4 7h1v-1c-5-1-5-6-5-6" id="path5251" fill="#3f409a"/><path d="M395 226h-1l-1 1h2a3 3 0 0 1-1 1l1 1v-1l1-2v2l1-1v3h1v-2l1-1v1h1v-1l2 2v-2h1l1 2v-2 1l1-1 1 1 1-1v3l1-3c1-1 1 1 1 1v-1l2 3 1-3v1c1-1 2 0 2 1v-2l2 2v-2l2 2 1-1v2l1-3 1 1h1l2 1h2v-1l-1-1h-2l-6-1-2-1-12 1a21 21 0 0 1-8 0" id="path5253" fill="#3f409a"/><g id="g5255" fill="#fff"><path d="M394 233h1l1 1-1-1h-1" id="path5257"/><path d="M401 232h1-1" id="path5259"/><path d="M404 233l1-1 1 1h-1-1" id="path5261"/><path d="M411 232h0" id="path5263"/><path d="M407 233l2-1 1 1h-2-1" id="path5265"/><path d="M397 233l1-1 2 1h-2-1" id="path5267"/><path d="M391 233l2-1 1 1h-2-1" id="path5269"/><path d="M414 233l2-1 1 1h-2-1" id="path5271"/><path d="M421 233l1-1 2 1h-2-1" id="path5273"/><path d="M417 234l2-1 1 1h-2-1" id="path5275"/><path d="M396 235l1-1 1 1h-2" id="path5277"/><path d="M399 235l1-1 1 1h-1-1" id="path5279"/><path d="M402 235h0" id="path5281"/><path d="M412 236l2-1 1 1h-2-1" id="path5283"/><path d="M401 234l2-1 1 1h-2-1" id="path5285"/><path d="M406 235l1-1 1 1h-2" id="path5287"/><path d="M404 236h2l1 1-1-1h-2" id="path5289"/><path d="M408 237l1-1 1 1h-2" id="path5291"/><path d="M411 237h0" id="path5293"/><path d="M410 236l2-1 1 1h-2-1" id="path5295"/><path d="M405 238l2-1 1 1h-3" id="path5297"/><path d="M404 239h1l2 1-2-1h-1" id="path5299"/><path d="M407 240l2-1 1 1h-3" id="path5301"/><path d="M411 240h1-1" id="path5303"/><path d="M410 239l1-1 1 1h-2" id="path5305"/><path d="M411 235l2-1 1 1h-3" id="path5307"/><path d="M409 234h0" id="path5309"/><path d="M401 237h1-1" id="path5311"/><path d="M399 237l1-1 1 1h-2" id="path5313"/><path d="M418 236l1-1 1 1-1-1h-1" id="path5315"/><path d="M415 235h2-2" id="path5317"/><path d="M416 239l2-1 1 1h-2-1" id="path5319"/><path d="M414 238h0" id="path5321"/><path d="M419 242l1-1 1 1h-2" id="path5323"/><path d="M414 241l2-1 1 1h-3" id="path5325"/><path d="M416 244l2-1 1 1h-2-1" id="path5327"/><path d="M412 242l1-1 2 1h-2-1" id="path5329"/><path d="M405 264l-2 1-6-12c-1-3-2-5-4-6v-1l3 1c3 3 3 7 5 11l3 6h1" id="path5331"/></g><path d="M405 264l-2 1-6-12c-1-3-2-5-4-6v-1l3 1c3 3 3 7 5 11l3 6h1z" id="path5333" fill="none" stroke="#ed1a3a"/><path d="M383 242h2c0 3 0 6 3 8l-2 1v2l1 1c1 2 3 3 3 5v9l1 10h-5l-1-17c-2-4-5-7-6-12l-1-1 5 8c-1 3-1 7-3 9l-8 9-2-1-3-2 3-1 6-10c2-3 0-6 0-9v-1-2l2-6h5" id="path5335" fill="#b33636"/><path d="M383 242h2c0 3 0 6 3 8l-2 1v2l1 1c1 2 3 3 3 5v9l1 10h-5l-1-17c-2-4-5-7-6-12l-1-1 5 8c-1 3-1 7-3 9l-8 9-2-1-3-2 3-1 6-10c2-3 0-6 0-9v-1-2l2-6h5z" id="path5337" fill="none" stroke="#ed1a3a"/><path d="M391 220c0 2 2 2 1 4l1 5c-2 1-2-1-3-1h-3c1-2-1-4-1-5l-2-1c1-1 0-3 2-3l2-1 3 2" id="path5339" fill="#b33636"/><path d="M391 220c0 2 2 2 1 4l1 5c-2 1-2-1-3-1h-3c1-2-1-4-1-5l-2-1c1-1 0-3 2-3l2-1 3 2z" id="path5341" fill="none" stroke="#ed1a3a"/><path d="M399 271h-1l-1 1-1-1v0l-1 1h-1-3l4-1h4" id="path5343" fill="#b33636"/><path d="M321 214l1 2m1-1l-1-5m3 5l-1-8m2 8v-8m1 8l1-9m4-1l-4 10m1 0l5-10m-4 11l5-8m-4 8l6-7m-6 8l7-5m-6 5l6-2m-6 3l6-1" id="path5345" fill="none" stroke="#ed1a3a" stroke-linecap="round"/></g></g></g></svg>